<mxfile host="app.diagrams.net" modified="2023-12-26T02:43:11.810Z" agent="Mozilla/5.0 (Windows NT 10.0; Win64; x64) AppleWebKit/537.36 (KHTML, like Gecko) Chrome/120.0.0.0 Safari/537.36 Edg/120.0.0.0" etag="JmI9paB_U8vIHdA35Inz" version="22.1.11" type="github">
  <diagram id="XrqOb0yFJwFmkotN1X54" name="Page-1">
    <mxGraphModel dx="3771" dy="1710" grid="1" gridSize="10" guides="1" tooltips="1" connect="1" arrows="1" fold="1" page="1" pageScale="1" pageWidth="827" pageHeight="1169" math="0" shadow="0">
      <root>
        <mxCell id="0" />
        <mxCell id="1" parent="0" />
        <mxCell id="tzKpdzGzU6ckgr4uCCz3-2" value="" style="rounded=0;whiteSpace=wrap;html=1;endArrow=none;dashed=1;html=1;dashPattern=1 3;strokeWidth=2;rounded=0;" parent="1" vertex="1">
          <mxGeometry x="337" y="3495" width="733" height="615" as="geometry" />
        </mxCell>
        <mxCell id="SWVAi90Qxo_ujY7dEz8q-1" value="" style="rounded=0;whiteSpace=wrap;html=1;endArrow=none;dashed=1;html=1;dashPattern=1 3;strokeWidth=2;rounded=0;" parent="1" vertex="1">
          <mxGeometry x="378.5" y="3535" width="653" height="545" as="geometry" />
        </mxCell>
        <mxCell id="GXHC1qzvz30r8LCaRYrL-83" value="" style="rounded=0;whiteSpace=wrap;html=1;" parent="1" vertex="1">
          <mxGeometry x="-17.310000000000002" y="6335" width="633.25" height="410" as="geometry" />
        </mxCell>
        <mxCell id="GXHC1qzvz30r8LCaRYrL-96" value="" style="rounded=0;whiteSpace=wrap;html=1;endArrow=none;dashed=1;html=1;dashPattern=1 3;strokeWidth=2;rounded=0;fillColor=#f5f5f5;fontColor=#333333;strokeColor=#666666;" parent="1" vertex="1">
          <mxGeometry x="331.18" y="6390" width="241" height="330" as="geometry" />
        </mxCell>
        <mxCell id="GXHC1qzvz30r8LCaRYrL-79" value="" style="rounded=0;whiteSpace=wrap;html=1;" parent="1" vertex="1">
          <mxGeometry x="64.06" y="6050" width="463.25" height="230" as="geometry" />
        </mxCell>
        <mxCell id="GXHC1qzvz30r8LCaRYrL-62" value="" style="rounded=0;whiteSpace=wrap;html=1;" parent="1" vertex="1">
          <mxGeometry x="1350" y="4360" width="632.5" height="520" as="geometry" />
        </mxCell>
        <mxCell id="GXHC1qzvz30r8LCaRYrL-55" value="" style="rounded=0;whiteSpace=wrap;html=1;" parent="1" vertex="1">
          <mxGeometry x="1400" y="4640" width="532.5" height="210" as="geometry" />
        </mxCell>
        <mxCell id="GXHC1qzvz30r8LCaRYrL-58" style="edgeStyle=orthogonalEdgeStyle;rounded=0;orthogonalLoop=1;jettySize=auto;html=1;exitX=0.5;exitY=1;exitDx=0;exitDy=0;entryX=0.5;entryY=0;entryDx=0;entryDy=0;" parent="1" source="GXHC1qzvz30r8LCaRYrL-51" target="GXHC1qzvz30r8LCaRYrL-55" edge="1">
          <mxGeometry relative="1" as="geometry" />
        </mxCell>
        <mxCell id="GXHC1qzvz30r8LCaRYrL-51" value="" style="rounded=0;whiteSpace=wrap;html=1;" parent="1" vertex="1">
          <mxGeometry x="1498.25" y="4380" width="336" height="190" as="geometry" />
        </mxCell>
        <mxCell id="GXHC1qzvz30r8LCaRYrL-46" value="" style="rounded=0;whiteSpace=wrap;html=1;endArrow=none;dashed=1;html=1;dashPattern=1 3;strokeWidth=2;rounded=0;" parent="1" vertex="1">
          <mxGeometry x="420" y="3580" width="570" height="460" as="geometry" />
        </mxCell>
        <mxCell id="GXHC1qzvz30r8LCaRYrL-42" style="edgeStyle=orthogonalEdgeStyle;rounded=0;orthogonalLoop=1;jettySize=auto;html=1;exitX=0.5;exitY=0;exitDx=0;exitDy=0;entryX=0.5;entryY=1;entryDx=0;entryDy=0;" parent="1" source="GXHC1qzvz30r8LCaRYrL-39" target="GXHC1qzvz30r8LCaRYrL-32" edge="1">
          <mxGeometry relative="1" as="geometry" />
        </mxCell>
        <mxCell id="GXHC1qzvz30r8LCaRYrL-39" value="" style="rounded=0;whiteSpace=wrap;html=1;" parent="1" vertex="1">
          <mxGeometry x="1212.5" y="3685" width="595" height="255" as="geometry" />
        </mxCell>
        <mxCell id="GXHC1qzvz30r8LCaRYrL-25" value="" style="rounded=0;whiteSpace=wrap;html=1;" parent="1" vertex="1">
          <mxGeometry x="465" y="3625" width="485" height="370" as="geometry" />
        </mxCell>
        <mxCell id="GXHC1qzvz30r8LCaRYrL-23" value="" style="rounded=0;whiteSpace=wrap;html=1;endArrow=none;dashed=1;html=1;dashPattern=1 3;strokeWidth=2;rounded=0;" parent="1" vertex="1">
          <mxGeometry x="510" y="3670" width="381.25" height="280" as="geometry" />
        </mxCell>
        <mxCell id="OETXXq7D0TBz0dgVjHIm-67" value="" style="rounded=0;whiteSpace=wrap;html=1;" parent="1" vertex="1">
          <mxGeometry x="1483.75" y="2090" width="400" height="410" as="geometry" />
        </mxCell>
        <mxCell id="OETXXq7D0TBz0dgVjHIm-57" value="" style="rounded=0;whiteSpace=wrap;html=1;" parent="1" vertex="1">
          <mxGeometry x="1966.25" y="2088.75" width="370" height="411.25" as="geometry" />
        </mxCell>
        <mxCell id="OETXXq7D0TBz0dgVjHIm-22" value="" style="rounded=0;whiteSpace=wrap;html=1;" parent="1" vertex="1">
          <mxGeometry x="1602.5" y="3053.28" width="480" height="150" as="geometry" />
        </mxCell>
        <mxCell id="OETXXq7D0TBz0dgVjHIm-28" style="edgeStyle=orthogonalEdgeStyle;rounded=0;orthogonalLoop=1;jettySize=auto;html=1;exitX=0.5;exitY=1;exitDx=0;exitDy=0;entryX=0.5;entryY=0;entryDx=0;entryDy=0;" parent="1" source="OETXXq7D0TBz0dgVjHIm-10" target="OETXXq7D0TBz0dgVjHIm-2" edge="1">
          <mxGeometry relative="1" as="geometry" />
        </mxCell>
        <mxCell id="OETXXq7D0TBz0dgVjHIm-10" value="" style="rounded=0;whiteSpace=wrap;html=1;" parent="1" vertex="1">
          <mxGeometry x="1105" y="2810" width="375" height="123.5" as="geometry" />
        </mxCell>
        <mxCell id="B2GjhQGrCiO4aPkmDRtn-31" value="" style="rounded=0;whiteSpace=wrap;html=1;endArrow=none;dashed=1;html=1;dashPattern=1 3;strokeWidth=2;rounded=0;" parent="1" vertex="1">
          <mxGeometry x="420" y="2790.8099999999995" width="520" height="375.34" as="geometry" />
        </mxCell>
        <mxCell id="fSXdJqcKQk1bGgUf9QQ9-15" value="" style="rounded=0;whiteSpace=wrap;html=1;" parent="1" vertex="1">
          <mxGeometry x="465" y="2854" width="435" height="256" as="geometry" />
        </mxCell>
        <mxCell id="fSXdJqcKQk1bGgUf9QQ9-16" value="" style="rounded=1;whiteSpace=wrap;html=1;" parent="1" vertex="1">
          <mxGeometry x="514.5" y="2882.47" width="336" height="192.02" as="geometry" />
        </mxCell>
        <mxCell id="fSXdJqcKQk1bGgUf9QQ9-13" style="edgeStyle=orthogonalEdgeStyle;rounded=0;orthogonalLoop=1;jettySize=auto;html=1;exitX=1;exitY=0.5;exitDx=0;exitDy=0;entryX=0;entryY=0.5;entryDx=0;entryDy=0;" parent="1" source="B2GjhQGrCiO4aPkmDRtn-15" edge="1">
          <mxGeometry relative="1" as="geometry">
            <mxPoint x="465" y="2978.4800000000005" as="targetPoint" />
          </mxGeometry>
        </mxCell>
        <mxCell id="B2GjhQGrCiO4aPkmDRtn-15" value="" style="rounded=0;whiteSpace=wrap;html=1;" parent="1" vertex="1">
          <mxGeometry x="-80" y="2863.48" width="436.25" height="230" as="geometry" />
        </mxCell>
        <mxCell id="fSXdJqcKQk1bGgUf9QQ9-9" value="" style="rounded=1;whiteSpace=wrap;html=1;" parent="1" vertex="1">
          <mxGeometry x="-30.5" y="2903.5" width="330.25" height="157" as="geometry" />
        </mxCell>
        <mxCell id="B2GjhQGrCiO4aPkmDRtn-16" value="SqlSessionFactory" style="text;html=1;align=center;verticalAlign=middle;resizable=0;points=[];autosize=1;strokeColor=none;fillColor=none;" parent="1" vertex="1">
          <mxGeometry x="-80" y="2863.4799999999996" width="120" height="30" as="geometry" />
        </mxCell>
        <mxCell id="ZrPeXIypVP3lfMweiKmu-2" value="" style="rounded=0;whiteSpace=wrap;html=1;" parent="1" vertex="1">
          <mxGeometry x="563.32" y="-150" width="535.5" height="540" as="geometry" />
        </mxCell>
        <mxCell id="s7qtdpBINrmC5wwDZ8EZ-2" style="edgeStyle=orthogonalEdgeStyle;rounded=0;orthogonalLoop=1;jettySize=auto;html=1;exitX=0.5;exitY=0;exitDx=0;exitDy=0;entryX=0.5;entryY=1;entryDx=0;entryDy=0;" parent="1" source="KRev_iM4Jv4Y9EaLXWhe-46" target="KRev_iM4Jv4Y9EaLXWhe-34" edge="1">
          <mxGeometry relative="1" as="geometry" />
        </mxCell>
        <mxCell id="s7qtdpBINrmC5wwDZ8EZ-3" style="edgeStyle=orthogonalEdgeStyle;rounded=0;orthogonalLoop=1;jettySize=auto;html=1;exitX=0.5;exitY=0;exitDx=0;exitDy=0;entryX=0.5;entryY=1;entryDx=0;entryDy=0;" parent="1" source="KRev_iM4Jv4Y9EaLXWhe-46" target="KRev_iM4Jv4Y9EaLXWhe-49" edge="1">
          <mxGeometry relative="1" as="geometry" />
        </mxCell>
        <mxCell id="KRev_iM4Jv4Y9EaLXWhe-46" value="" style="rounded=0;whiteSpace=wrap;html=1;" parent="1" vertex="1">
          <mxGeometry x="-10.56" y="4855" width="810.5" height="245" as="geometry" />
        </mxCell>
        <mxCell id="HCkOC1CJI_hwc8_c8_Th-39" value="" style="rounded=0;whiteSpace=wrap;html=1;" parent="1" vertex="1">
          <mxGeometry x="641.75" y="1993.75" width="560" height="470" as="geometry" />
        </mxCell>
        <mxCell id="HCkOC1CJI_hwc8_c8_Th-40" style="edgeStyle=orthogonalEdgeStyle;rounded=0;orthogonalLoop=1;jettySize=auto;html=1;exitX=1;exitY=0.5;exitDx=0;exitDy=0;" parent="1" source="HCkOC1CJI_hwc8_c8_Th-30" target="HCkOC1CJI_hwc8_c8_Th-23" edge="1">
          <mxGeometry relative="1" as="geometry" />
        </mxCell>
        <mxCell id="HCkOC1CJI_hwc8_c8_Th-30" value="" style="rounded=0;whiteSpace=wrap;html=1;" parent="1" vertex="1">
          <mxGeometry x="76.75" y="2167.5" width="220" height="122.5" as="geometry" />
        </mxCell>
        <mxCell id="HCkOC1CJI_hwc8_c8_Th-41" style="edgeStyle=orthogonalEdgeStyle;rounded=0;orthogonalLoop=1;jettySize=auto;html=1;exitX=1;exitY=0.5;exitDx=0;exitDy=0;entryX=0;entryY=0.5;entryDx=0;entryDy=0;" parent="1" source="HCkOC1CJI_hwc8_c8_Th-23" target="HCkOC1CJI_hwc8_c8_Th-39" edge="1">
          <mxGeometry relative="1" as="geometry" />
        </mxCell>
        <mxCell id="HCkOC1CJI_hwc8_c8_Th-23" value="" style="rounded=0;whiteSpace=wrap;html=1;" parent="1" vertex="1">
          <mxGeometry x="330.75" y="2157.5" width="260" height="142.5" as="geometry" />
        </mxCell>
        <mxCell id="HCkOC1CJI_hwc8_c8_Th-16" value="" style="rounded=0;whiteSpace=wrap;html=1;" parent="1" vertex="1">
          <mxGeometry x="93" y="1230" width="805" height="470" as="geometry" />
        </mxCell>
        <mxCell id="HCkOC1CJI_hwc8_c8_Th-10" style="edgeStyle=orthogonalEdgeStyle;rounded=0;orthogonalLoop=1;jettySize=auto;html=1;exitX=0;exitY=0.5;exitDx=0;exitDy=0;entryX=1;entryY=0.5;entryDx=0;entryDy=0;" parent="1" source="HCkOC1CJI_hwc8_c8_Th-8" target="HCkOC1CJI_hwc8_c8_Th-4" edge="1">
          <mxGeometry relative="1" as="geometry" />
        </mxCell>
        <mxCell id="HCkOC1CJI_hwc8_c8_Th-8" value="" style="rounded=0;whiteSpace=wrap;html=1;" parent="1" vertex="1">
          <mxGeometry x="570.5" y="1438" width="260" height="242" as="geometry" />
        </mxCell>
        <mxCell id="HCkOC1CJI_hwc8_c8_Th-4" value="" style="rounded=0;whiteSpace=wrap;html=1;" parent="1" vertex="1">
          <mxGeometry x="160.5" y="1438" width="240" height="242" as="geometry" />
        </mxCell>
        <mxCell id="aqGw6CmQRWcVKoaSbXMj-14" value="" style="rounded=0;whiteSpace=wrap;html=1;" parent="1" vertex="1">
          <mxGeometry x="485.5" y="550" width="727" height="520" as="geometry" />
        </mxCell>
        <mxCell id="aqGw6CmQRWcVKoaSbXMj-13" value="" style="rounded=0;whiteSpace=wrap;html=1;" parent="1" vertex="1">
          <mxGeometry x="548.75" y="670" width="603.75" height="350" as="geometry" />
        </mxCell>
        <mxCell id="aqGw6CmQRWcVKoaSbXMj-5" value="" style="rounded=0;whiteSpace=wrap;html=1;" parent="1" vertex="1">
          <mxGeometry x="24.18" y="-150" width="490" height="540" as="geometry" />
        </mxCell>
        <mxCell id="V2kQxAzgLIzO_4P0HWAn-2" style="edgeStyle=orthogonalEdgeStyle;rounded=0;orthogonalLoop=1;jettySize=auto;html=1;exitX=0.5;exitY=0;exitDx=0;exitDy=0;entryX=0.5;entryY=1;entryDx=0;entryDy=0;" parent="1" source="aqGw6CmQRWcVKoaSbXMj-1" target="aqGw6CmQRWcVKoaSbXMj-2" edge="1">
          <mxGeometry relative="1" as="geometry" />
        </mxCell>
        <mxCell id="21ADhYOM5bDmx4pO5tFE-12" style="edgeStyle=orthogonalEdgeStyle;rounded=0;orthogonalLoop=1;jettySize=auto;html=1;exitX=0;exitY=0.5;exitDx=0;exitDy=0;entryX=1;entryY=0.5;entryDx=0;entryDy=0;" parent="1" source="aqGw6CmQRWcVKoaSbXMj-1" target="21ADhYOM5bDmx4pO5tFE-9" edge="1">
          <mxGeometry relative="1" as="geometry" />
        </mxCell>
        <mxCell id="aqGw6CmQRWcVKoaSbXMj-1" value="DefaultSingletonBeanRegistry&lt;br&gt;三级缓存&lt;br style=&quot;border-color: var(--border-color);&quot;&gt;防止同时创建同名bean并将bean的创建逻辑开放给下一层&lt;br style=&quot;border-color: var(--border-color);&quot;&gt;向3L添加一个ObjectFactory&lt;br&gt;向1L缓存添加一个bean&lt;span style=&quot;background-color: initial;&quot;&gt;&lt;br&gt;&lt;/span&gt;" style="rounded=1;whiteSpace=wrap;html=1;" parent="1" vertex="1">
          <mxGeometry x="98.82" y="240" width="350" height="115" as="geometry" />
        </mxCell>
        <mxCell id="T5hCsq0dW14gql95HTT5-2" style="edgeStyle=orthogonalEdgeStyle;rounded=0;orthogonalLoop=1;jettySize=auto;html=1;exitX=0.5;exitY=0;exitDx=0;exitDy=0;entryX=0.5;entryY=1;entryDx=0;entryDy=0;" parent="1" source="aqGw6CmQRWcVKoaSbXMj-2" target="aqGw6CmQRWcVKoaSbXMj-3" edge="1">
          <mxGeometry relative="1" as="geometry" />
        </mxCell>
        <mxCell id="aqGw6CmQRWcVKoaSbXMj-2" value="AbstractAutowireCapableBeanFactory&lt;br&gt;刚实例化但未初始化的bean用lambda包装成getEarlyBeanReference()后丢到3L&lt;br&gt;实例化前后、初始化前后、销毁前后的钩子&lt;br&gt;Aware&lt;br&gt;postProcessProperties/determineCandidateConstructors触发自动注入&lt;br&gt;循环依赖&lt;br&gt;循环依赖和代理下的AOP，重复创建代理对象问题&lt;br&gt;getEarlyBeanReference/postProcessAfterInitialization触发AOP" style="rounded=1;whiteSpace=wrap;html=1;" parent="1" vertex="1">
          <mxGeometry x="50.550000000000004" y="20" width="446.55" height="157" as="geometry" />
        </mxCell>
        <mxCell id="aqGw6CmQRWcVKoaSbXMj-3" value="DefaultListableBeanFactory&lt;br&gt;beanDefinitionMap&lt;br&gt;访问bean的api" style="rounded=1;whiteSpace=wrap;html=1;" parent="1" vertex="1">
          <mxGeometry x="123.82" y="-124" width="300" height="90" as="geometry" />
        </mxCell>
        <mxCell id="T5hCsq0dW14gql95HTT5-3" style="edgeStyle=orthogonalEdgeStyle;rounded=0;orthogonalLoop=1;jettySize=auto;html=1;exitX=0.5;exitY=0;exitDx=0;exitDy=0;entryX=0.5;entryY=1;entryDx=0;entryDy=0;" parent="1" source="aqGw6CmQRWcVKoaSbXMj-6" target="aqGw6CmQRWcVKoaSbXMj-7" edge="1">
          <mxGeometry relative="1" as="geometry" />
        </mxCell>
        <mxCell id="aqGw6CmQRWcVKoaSbXMj-6" value="AbstractApplicationContext&lt;br&gt;定义refresh流程：&lt;br&gt;触发postProcessBeanFactory进行scan，preInstance、publishEvent等&lt;br&gt;Environment&lt;br&gt;List&amp;lt;BeanFactoryPostProcessor&amp;gt;" style="rounded=1;whiteSpace=wrap;html=1;" parent="1" vertex="1">
          <mxGeometry x="607.82" y="135" width="455" height="105" as="geometry" />
        </mxCell>
        <mxCell id="aqGw6CmQRWcVKoaSbXMj-7" value="AnnotationConfigServletWebServerApplicationContext&lt;br&gt;reader&lt;br&gt;scanner，@Conditional&lt;br&gt;postProcessBeanFactory触发scan" style="rounded=1;whiteSpace=wrap;html=1;" parent="1" vertex="1">
          <mxGeometry x="607.82" width="455" height="95" as="geometry" />
        </mxCell>
        <mxCell id="aqGw6CmQRWcVKoaSbXMj-9" value="Pointcut（ClassFilter，MethodMatcher）&lt;br&gt;&lt;br&gt;Advice（MethodInvocation）：ExposeInvocationInterceptor，MethodInterceptor" style="rounded=0;whiteSpace=wrap;html=1;fillColor=#f5f5f5;fontColor=#333333;strokeColor=#666666;" parent="1" vertex="1">
          <mxGeometry x="597" y="730" width="500" height="110" as="geometry" />
        </mxCell>
        <mxCell id="aqGw6CmQRWcVKoaSbXMj-12" value="AdvisorList" style="text;html=1;align=center;verticalAlign=middle;resizable=0;points=[];autosize=1;strokeColor=none;fillColor=none;" parent="1" vertex="1">
          <mxGeometry x="548.75" y="670" width="80" height="30" as="geometry" />
        </mxCell>
        <mxCell id="aqGw6CmQRWcVKoaSbXMj-15" value="代理对象" style="text;html=1;align=center;verticalAlign=middle;resizable=0;points=[];autosize=1;strokeColor=none;fillColor=none;" parent="1" vertex="1">
          <mxGeometry x="485.5" y="550" width="70" height="30" as="geometry" />
        </mxCell>
        <mxCell id="HCkOC1CJI_hwc8_c8_Th-1" value="Transaction1Attribute" style="rounded=1;whiteSpace=wrap;html=1;" parent="1" vertex="1">
          <mxGeometry x="201.5" y="1500" width="158.5" height="40" as="geometry" />
        </mxCell>
        <mxCell id="HCkOC1CJI_hwc8_c8_Th-5" value="TransactionAttributeSource&lt;br&gt;propagation/isolation等" style="text;html=1;align=center;verticalAlign=middle;resizable=0;points=[];autosize=1;strokeColor=none;fillColor=none;" parent="1" vertex="1">
          <mxGeometry x="161.18" y="1438" width="170" height="40" as="geometry" />
        </mxCell>
        <mxCell id="HCkOC1CJI_hwc8_c8_Th-7" value="TransactionStatus" style="rounded=1;whiteSpace=wrap;html=1;" parent="1" vertex="1">
          <mxGeometry x="633" y="1524" width="127.5" height="70" as="geometry" />
        </mxCell>
        <mxCell id="HCkOC1CJI_hwc8_c8_Th-9" value="TransactionManager" style="text;html=1;align=center;verticalAlign=middle;resizable=0;points=[];autosize=1;strokeColor=none;fillColor=none;" parent="1" vertex="1">
          <mxGeometry x="569.25" y="1438" width="130" height="30" as="geometry" />
        </mxCell>
        <mxCell id="HCkOC1CJI_hwc8_c8_Th-11" value="get，commit，rollback" style="text;html=1;align=center;verticalAlign=middle;resizable=0;points=[];autosize=1;strokeColor=none;fillColor=none;" parent="1" vertex="1">
          <mxGeometry x="413.5" y="1518" width="140" height="30" as="geometry" />
        </mxCell>
        <mxCell id="HCkOC1CJI_hwc8_c8_Th-14" value="TransactionSynchronizationManager资源绑定&lt;br&gt;TransactionSynchronization钩子" style="rounded=1;whiteSpace=wrap;html=1;" parent="1" vertex="1">
          <mxGeometry x="93" y="1717" width="805" height="83" as="geometry" />
        </mxCell>
        <mxCell id="HCkOC1CJI_hwc8_c8_Th-17" value="TransactionAttributeSourceAdvisor" style="text;html=1;align=center;verticalAlign=middle;resizable=0;points=[];autosize=1;strokeColor=none;fillColor=none;" parent="1" vertex="1">
          <mxGeometry x="93" y="1230" width="210" height="30" as="geometry" />
        </mxCell>
        <mxCell id="HCkOC1CJI_hwc8_c8_Th-21" value="handler &amp;amp; interceptor" style="rounded=1;whiteSpace=wrap;html=1;" parent="1" vertex="1">
          <mxGeometry x="395" y="2198.75" width="140" height="60" as="geometry" />
        </mxCell>
        <mxCell id="HCkOC1CJI_hwc8_c8_Th-24" value="HandlerExecutionChain" style="text;html=1;align=center;verticalAlign=middle;resizable=0;points=[];autosize=1;strokeColor=none;fillColor=none;" parent="1" vertex="1">
          <mxGeometry x="330.75" y="2157.5" width="150" height="30" as="geometry" />
        </mxCell>
        <mxCell id="HCkOC1CJI_hwc8_c8_Th-27" value="HandlerMapping" style="text;html=1;align=center;verticalAlign=middle;resizable=0;points=[];autosize=1;strokeColor=none;fillColor=none;" parent="1" vertex="1">
          <mxGeometry x="76.75" y="2167.5" width="110" height="30" as="geometry" />
        </mxCell>
        <mxCell id="HCkOC1CJI_hwc8_c8_Th-29" value="MappingRegistry" style="rounded=1;whiteSpace=wrap;html=1;" parent="1" vertex="1">
          <mxGeometry x="106.75" y="2197.5" width="160" height="60" as="geometry" />
        </mxCell>
        <mxCell id="fSXdJqcKQk1bGgUf9QQ9-4" style="edgeStyle=orthogonalEdgeStyle;rounded=0;orthogonalLoop=1;jettySize=auto;html=1;exitX=0.5;exitY=1;exitDx=0;exitDy=0;entryX=0.538;entryY=0.031;entryDx=0;entryDy=0;entryPerimeter=0;" parent="1" source="HCkOC1CJI_hwc8_c8_Th-31" target="ZrPeXIypVP3lfMweiKmu-23" edge="1">
          <mxGeometry relative="1" as="geometry" />
        </mxCell>
        <mxCell id="HCkOC1CJI_hwc8_c8_Th-31" value="" style="rounded=1;whiteSpace=wrap;html=1;fillColor=#f5f5f5;fontColor=#333333;strokeColor=#666666;" parent="1" vertex="1">
          <mxGeometry x="683" y="2043.75" width="267.5" height="102.5" as="geometry" />
        </mxCell>
        <mxCell id="HCkOC1CJI_hwc8_c8_Th-32" value="HandlerAdapter" style="text;html=1;align=center;verticalAlign=middle;resizable=0;points=[];autosize=1;strokeColor=none;fillColor=none;" parent="1" vertex="1">
          <mxGeometry x="641.75" y="1993.75" width="110" height="30" as="geometry" />
        </mxCell>
        <mxCell id="fSXdJqcKQk1bGgUf9QQ9-5" style="edgeStyle=orthogonalEdgeStyle;rounded=0;orthogonalLoop=1;jettySize=auto;html=1;exitX=0.5;exitY=1;exitDx=0;exitDy=0;entryX=0.5;entryY=0;entryDx=0;entryDy=0;" parent="1" source="HCkOC1CJI_hwc8_c8_Th-33" target="HCkOC1CJI_hwc8_c8_Th-34" edge="1">
          <mxGeometry relative="1" as="geometry" />
        </mxCell>
        <mxCell id="HCkOC1CJI_hwc8_c8_Th-33" value="" style="rounded=1;whiteSpace=wrap;html=1;fillColor=#f5f5f5;fontColor=#333333;strokeColor=#666666;" parent="1" vertex="1">
          <mxGeometry x="685.5" y="2175" width="266.25" height="151.25" as="geometry" />
        </mxCell>
        <mxCell id="HCkOC1CJI_hwc8_c8_Th-34" value="viewResolvers&lt;br&gt;返回视图&lt;br&gt;ContentNegotiatingViewResolver" style="rounded=1;whiteSpace=wrap;html=1;fillColor=#f5f5f5;fontColor=#333333;strokeColor=#666666;" parent="1" vertex="1">
          <mxGeometry x="711.37" y="2355" width="214.5" height="83.75" as="geometry" />
        </mxCell>
        <mxCell id="HCkOC1CJI_hwc8_c8_Th-35" value="contentNegotiationManager" style="rounded=1;whiteSpace=wrap;html=1;" parent="1" vertex="1">
          <mxGeometry x="728.62" y="2220.63" width="180" height="60" as="geometry" />
        </mxCell>
        <mxCell id="HCkOC1CJI_hwc8_c8_Th-36" value="messageConverters&lt;br&gt;requestResponseBodyAdvice" style="rounded=1;whiteSpace=wrap;html=1;" parent="1" vertex="1">
          <mxGeometry x="992.25" y="2012.5" width="170" height="432.5" as="geometry" />
        </mxCell>
        <mxCell id="HCkOC1CJI_hwc8_c8_Th-43" value="List&amp;lt;HandlerInterceptor&amp;gt;&lt;br&gt;HandlerExceptionResolver" style="rounded=1;whiteSpace=wrap;html=1;" parent="1" vertex="1">
          <mxGeometry x="-70" y="2476.25" width="1271.75" height="83.75" as="geometry" />
        </mxCell>
        <mxCell id="B2GjhQGrCiO4aPkmDRtn-7" value="Configuration" style="text;html=1;align=center;verticalAlign=middle;resizable=0;points=[];autosize=1;strokeColor=none;fillColor=none;" parent="1" vertex="1">
          <mxGeometry x="-30.5" y="2903.4999999999995" width="90" height="30" as="geometry" />
        </mxCell>
        <mxCell id="B2GjhQGrCiO4aPkmDRtn-9" value="mapperRegistry：mapper接口 映射 MapperProxy" style="rounded=1;whiteSpace=wrap;html=1;" parent="1" vertex="1">
          <mxGeometry x="-0.5" y="2994.54" width="272.25" height="40" as="geometry" />
        </mxCell>
        <mxCell id="B2GjhQGrCiO4aPkmDRtn-11" value="mappedStatements：xml" style="rounded=1;whiteSpace=wrap;html=1;" parent="1" vertex="1">
          <mxGeometry x="-0.5" y="2940.06" width="272.25" height="40" as="geometry" />
        </mxCell>
        <mxCell id="B2GjhQGrCiO4aPkmDRtn-13" value="SqlSession" style="text;html=1;align=center;verticalAlign=middle;resizable=0;points=[];autosize=1;strokeColor=none;fillColor=none;" parent="1" vertex="1">
          <mxGeometry x="465" y="2854.3700000000003" width="80" height="30" as="geometry" />
        </mxCell>
        <mxCell id="B2GjhQGrCiO4aPkmDRtn-26" value="XMLMapperBuilder" style="text;html=1;align=center;verticalAlign=middle;resizable=0;points=[];autosize=1;strokeColor=none;fillColor=none;" parent="1" vertex="1">
          <mxGeometry x="-231.75" y="2936.54" width="130" height="30" as="geometry" />
        </mxCell>
        <mxCell id="B2GjhQGrCiO4aPkmDRtn-32" value="MapperProxy" style="text;html=1;align=center;verticalAlign=middle;resizable=0;points=[];autosize=1;strokeColor=none;fillColor=none;" parent="1" vertex="1">
          <mxGeometry x="420" y="2790.8100000000004" width="90" height="30" as="geometry" />
        </mxCell>
        <mxCell id="B2GjhQGrCiO4aPkmDRtn-36" value="Executor：Cache" style="text;html=1;align=center;verticalAlign=middle;resizable=0;points=[];autosize=1;strokeColor=none;fillColor=none;" parent="1" vertex="1">
          <mxGeometry x="514.5" y="2882.4700000000003" width="120" height="30" as="geometry" />
        </mxCell>
        <mxCell id="B7qnPKo44LP5Hfq4x25o-1" value="Interceptor&amp;nbsp;" style="rounded=1;whiteSpace=wrap;html=1;" parent="1" vertex="1">
          <mxGeometry x="420" y="3190" width="520" height="60" as="geometry" />
        </mxCell>
        <mxCell id="ovPs951zUUgyFUGP9RZu-32" style="edgeStyle=orthogonalEdgeStyle;rounded=0;orthogonalLoop=1;jettySize=auto;html=1;exitX=0.5;exitY=0;exitDx=0;exitDy=0;entryX=0.5;entryY=1;entryDx=0;entryDy=0;" parent="1" source="KRev_iM4Jv4Y9EaLXWhe-2" edge="1">
          <mxGeometry relative="1" as="geometry">
            <mxPoint x="116.75" y="5560" as="targetPoint" />
          </mxGeometry>
        </mxCell>
        <mxCell id="ovPs951zUUgyFUGP9RZu-33" style="edgeStyle=orthogonalEdgeStyle;rounded=0;orthogonalLoop=1;jettySize=auto;html=1;exitX=0.5;exitY=0;exitDx=0;exitDy=0;entryX=0.5;entryY=1;entryDx=0;entryDy=0;" parent="1" source="KRev_iM4Jv4Y9EaLXWhe-2" target="ovPs951zUUgyFUGP9RZu-22" edge="1">
          <mxGeometry relative="1" as="geometry" />
        </mxCell>
        <mxCell id="KRev_iM4Jv4Y9EaLXWhe-2" value="" style="rounded=0;whiteSpace=wrap;html=1;" parent="1" vertex="1">
          <mxGeometry x="76.75" y="5670" width="692.5" height="145" as="geometry" />
        </mxCell>
        <mxCell id="KRev_iM4Jv4Y9EaLXWhe-3" value="FeignContext&amp;nbsp;extends NamedContextFactory" style="text;html=1;align=center;verticalAlign=middle;resizable=0;points=[];autosize=1;strokeColor=none;fillColor=none;" parent="1" vertex="1">
          <mxGeometry x="76.75" y="5670" width="260" height="30" as="geometry" />
        </mxCell>
        <mxCell id="KRev_iM4Jv4Y9EaLXWhe-4" value="Map&amp;lt;String, AnnotationConfigApplicationContext&amp;gt;&amp;nbsp; &amp;nbsp;&amp;nbsp;context.getBean(fcType)" style="rounded=1;whiteSpace=wrap;html=1;" parent="1" vertex="1">
          <mxGeometry x="181.75" y="5700" width="442.5" height="40" as="geometry" />
        </mxCell>
        <mxCell id="KRev_iM4Jv4Y9EaLXWhe-5" value="Map&amp;lt;String, FeignClientSpecification&amp;gt;" style="rounded=1;whiteSpace=wrap;html=1;" parent="1" vertex="1">
          <mxGeometry x="181.75" y="5755" width="442.5" height="40" as="geometry" />
        </mxCell>
        <mxCell id="KRev_iM4Jv4Y9EaLXWhe-32" value="Map&amp;lt;String, AnnotationConfigApplicationContext&amp;gt;&amp;nbsp; &amp;nbsp;&amp;nbsp;context.getBean(lbType)" style="rounded=1;whiteSpace=wrap;html=1;" parent="1" vertex="1">
          <mxGeometry x="173.44" y="4892" width="442.5" height="40" as="geometry" />
        </mxCell>
        <mxCell id="KRev_iM4Jv4Y9EaLXWhe-33" value="Map&amp;lt;String, LoadBalancerClientSpecification&amp;gt;" style="rounded=1;whiteSpace=wrap;html=1;" parent="1" vertex="1">
          <mxGeometry x="173.44" y="4957.5" width="442.5" height="40" as="geometry" />
        </mxCell>
        <mxCell id="KRev_iM4Jv4Y9EaLXWhe-34" value="" style="rounded=0;whiteSpace=wrap;html=1;" parent="1" vertex="1">
          <mxGeometry x="77.19" y="4580" width="285" height="170" as="geometry" />
        </mxCell>
        <mxCell id="KRev_iM4Jv4Y9EaLXWhe-35" value="RoundRobinLoadBalancer" style="text;html=1;align=center;verticalAlign=middle;resizable=0;points=[];autosize=1;strokeColor=none;fillColor=none;" parent="1" vertex="1">
          <mxGeometry x="78.44" y="4580" width="160" height="30" as="geometry" />
        </mxCell>
        <mxCell id="KRev_iM4Jv4Y9EaLXWhe-36" value="serviceId" style="rounded=1;whiteSpace=wrap;html=1;" parent="1" vertex="1">
          <mxGeometry x="99.69" y="4625" width="240" height="40" as="geometry" />
        </mxCell>
        <mxCell id="KRev_iM4Jv4Y9EaLXWhe-37" value="ServiceInstanceListSupplier（healthyCheck，filterByHint）" style="rounded=1;whiteSpace=wrap;html=1;" parent="1" vertex="1">
          <mxGeometry x="99.69" y="4675" width="240" height="60" as="geometry" />
        </mxCell>
        <mxCell id="KRev_iM4Jv4Y9EaLXWhe-49" value="" style="rounded=0;whiteSpace=wrap;html=1;" parent="1" vertex="1">
          <mxGeometry x="429.69" y="4580" width="285" height="170" as="geometry" />
        </mxCell>
        <mxCell id="KRev_iM4Jv4Y9EaLXWhe-51" value="serviceId" style="rounded=1;whiteSpace=wrap;html=1;" parent="1" vertex="1">
          <mxGeometry x="452.19" y="4625" width="240" height="40" as="geometry" />
        </mxCell>
        <mxCell id="KRev_iM4Jv4Y9EaLXWhe-52" value="ServiceInstanceListSupplier（healthyCheck，filterByHint）" style="rounded=1;whiteSpace=wrap;html=1;" parent="1" vertex="1">
          <mxGeometry x="452.19" y="4675" width="240" height="60" as="geometry" />
        </mxCell>
        <mxCell id="KRev_iM4Jv4Y9EaLXWhe-39" value="RandomLoadBalancer" style="text;html=1;align=center;verticalAlign=middle;resizable=0;points=[];autosize=1;strokeColor=none;fillColor=none;" parent="1" vertex="1">
          <mxGeometry x="429.69" y="4580" width="160" height="30" as="geometry" />
        </mxCell>
        <mxCell id="KRev_iM4Jv4Y9EaLXWhe-54" value="" style="rounded=0;whiteSpace=wrap;html=1;" parent="1" vertex="1">
          <mxGeometry x="-170.5" y="3667.5" width="390" height="280" as="geometry" />
        </mxCell>
        <mxCell id="KRev_iM4Jv4Y9EaLXWhe-56" value="AbstractAutoServiceRegistration&lt;br style=&quot;border-color: var(--border-color);&quot;&gt;&lt;span style=&quot;&quot;&gt;（WebServerInitializedEvent&lt;/span&gt;&lt;span style=&quot;border-color: var(--border-color); background-color: initial;&quot;&gt;）&lt;/span&gt;" style="text;html=1;align=center;verticalAlign=middle;resizable=0;points=[];autosize=1;strokeColor=none;fillColor=none;" parent="1" vertex="1">
          <mxGeometry x="-170.5" y="3667.5" width="200" height="40" as="geometry" />
        </mxCell>
        <mxCell id="6oSpHALJbCOVRQ8A164m-1" style="edgeStyle=orthogonalEdgeStyle;rounded=0;orthogonalLoop=1;jettySize=auto;html=1;exitX=0.5;exitY=0;exitDx=0;exitDy=0;entryX=0.25;entryY=1;entryDx=0;entryDy=0;" parent="1" source="KRev_iM4Jv4Y9EaLXWhe-59" target="KRev_iM4Jv4Y9EaLXWhe-62" edge="1">
          <mxGeometry relative="1" as="geometry">
            <Array as="points">
              <mxPoint x="17" y="3728" />
              <mxPoint x="17" y="3460" />
              <mxPoint x="231" y="3460" />
            </Array>
            <mxPoint x="234.50499999999954" y="3463" as="targetPoint" />
          </mxGeometry>
        </mxCell>
        <mxCell id="KRev_iM4Jv4Y9EaLXWhe-59" value="" style="rounded=1;whiteSpace=wrap;html=1;" parent="1" vertex="1">
          <mxGeometry x="-130.06" y="3727.5" width="300.06" height="170" as="geometry" />
        </mxCell>
        <mxCell id="KRev_iM4Jv4Y9EaLXWhe-62" value="Registration Center（Map）Cluster" style="rounded=1;whiteSpace=wrap;html=1;" parent="1" vertex="1">
          <mxGeometry x="164.06" y="3320" width="269.5" height="103" as="geometry" />
        </mxCell>
        <mxCell id="tzKpdzGzU6ckgr4uCCz3-4" style="edgeStyle=orthogonalEdgeStyle;rounded=0;orthogonalLoop=1;jettySize=auto;html=1;exitX=0.5;exitY=0;exitDx=0;exitDy=0;entryX=0.75;entryY=1;entryDx=0;entryDy=0;" parent="1" source="KRev_iM4Jv4Y9EaLXWhe-64" target="KRev_iM4Jv4Y9EaLXWhe-62" edge="1">
          <mxGeometry relative="1" as="geometry">
            <Array as="points">
              <mxPoint x="704" y="3460" />
              <mxPoint x="366" y="3460" />
            </Array>
          </mxGeometry>
        </mxCell>
        <mxCell id="KRev_iM4Jv4Y9EaLXWhe-64" value="" style="rounded=1;whiteSpace=wrap;html=1;" parent="1" vertex="1">
          <mxGeometry x="557.13" y="3750" width="293.75" height="130" as="geometry" />
        </mxCell>
        <mxCell id="KRev_iM4Jv4Y9EaLXWhe-65" value="CompositeDiscoveryClient：getInstancesByServiceId" style="text;html=1;align=left;verticalAlign=middle;resizable=0;points=[];autosize=1;strokeColor=none;fillColor=none;" parent="1" vertex="1">
          <mxGeometry x="557.9999999999999" y="3750" width="310" height="30" as="geometry" />
        </mxCell>
        <mxCell id="KRev_iM4Jv4Y9EaLXWhe-66" value="List&amp;lt;ServiceInstance&amp;gt;" style="rounded=1;whiteSpace=wrap;html=1;" parent="1" vertex="1">
          <mxGeometry x="591.91" y="3781.25" width="224.19" height="67.5" as="geometry" />
        </mxCell>
        <mxCell id="s7qtdpBINrmC5wwDZ8EZ-1" value="LoadBalancerClientFactory&amp;nbsp;extends NamedContextFactory" style="text;html=1;align=center;verticalAlign=middle;resizable=0;points=[];autosize=1;strokeColor=none;fillColor=none;" parent="1" vertex="1">
          <mxGeometry x="-10.56" y="4855" width="340" height="30" as="geometry" />
        </mxCell>
        <mxCell id="s7qtdpBINrmC5wwDZ8EZ-4" value="get by LoadBalancerClientName" style="text;html=1;align=center;verticalAlign=middle;resizable=0;points=[];autosize=1;strokeColor=none;fillColor=none;" parent="1" vertex="1">
          <mxGeometry x="303.69" y="4815" width="200" height="30" as="geometry" />
        </mxCell>
        <mxCell id="ovPs951zUUgyFUGP9RZu-22" value="" style="rounded=0;whiteSpace=wrap;html=1;" parent="1" vertex="1">
          <mxGeometry x="473" y="5290" width="582.5" height="270" as="geometry" />
        </mxCell>
        <mxCell id="ovPs951zUUgyFUGP9RZu-23" value="" style="rounded=1;whiteSpace=wrap;html=1;" parent="1" vertex="1">
          <mxGeometry x="495.5" y="5400" width="540" height="140" as="geometry" />
        </mxCell>
        <mxCell id="ovPs951zUUgyFUGP9RZu-24" value="SentinelInvocationHandler" style="text;html=1;align=center;verticalAlign=middle;resizable=0;points=[];autosize=1;strokeColor=none;fillColor=none;" parent="1" vertex="1">
          <mxGeometry x="473" y="5290" width="160" height="30" as="geometry" />
        </mxCell>
        <mxCell id="ovPs951zUUgyFUGP9RZu-25" value="encoder/decoder" style="rounded=1;whiteSpace=wrap;html=1;" parent="1" vertex="1">
          <mxGeometry x="508" y="5450" width="115" height="40" as="geometry" />
        </mxCell>
        <mxCell id="ovPs951zUUgyFUGP9RZu-26" value="RequestInterceptor" style="rounded=1;whiteSpace=wrap;html=1;" parent="1" vertex="1">
          <mxGeometry x="638" y="5450" width="125" height="40" as="geometry" />
        </mxCell>
        <mxCell id="ovPs951zUUgyFUGP9RZu-27" value="contract" style="rounded=1;whiteSpace=wrap;html=1;" parent="1" vertex="1">
          <mxGeometry x="775.5" y="5450" width="102.5" height="40" as="geometry" />
        </mxCell>
        <mxCell id="ovPs951zUUgyFUGP9RZu-28" value="Target" style="rounded=1;whiteSpace=wrap;html=1;" parent="1" vertex="1">
          <mxGeometry x="573" y="5335" width="125" height="40" as="geometry" />
        </mxCell>
        <mxCell id="ovPs951zUUgyFUGP9RZu-29" value="FallbackFactory" style="rounded=1;whiteSpace=wrap;html=1;" parent="1" vertex="1">
          <mxGeometry x="833" y="5335" width="125" height="40" as="geometry" />
        </mxCell>
        <mxCell id="ovPs951zUUgyFUGP9RZu-31" value="Retryer" style="rounded=1;whiteSpace=wrap;html=1;" parent="1" vertex="1">
          <mxGeometry x="898" y="5450" width="122.5" height="40" as="geometry" />
        </mxCell>
        <mxCell id="ovPs951zUUgyFUGP9RZu-37" value="Map&amp;lt;Method, MethodHandler&amp;gt;" style="text;html=1;align=center;verticalAlign=middle;resizable=0;points=[];autosize=1;strokeColor=none;fillColor=none;" parent="1" vertex="1">
          <mxGeometry x="493" y="5400" width="190" height="30" as="geometry" />
        </mxCell>
        <mxCell id="ovPs951zUUgyFUGP9RZu-38" value="" style="rounded=0;whiteSpace=wrap;html=1;" parent="1" vertex="1">
          <mxGeometry x="-190.5" y="5290" width="582.5" height="270" as="geometry" />
        </mxCell>
        <mxCell id="ovPs951zUUgyFUGP9RZu-39" value="" style="rounded=1;whiteSpace=wrap;html=1;" parent="1" vertex="1">
          <mxGeometry x="-168" y="5400" width="540" height="140" as="geometry" />
        </mxCell>
        <mxCell id="ovPs951zUUgyFUGP9RZu-40" value="FeignInvocationHandler" style="text;html=1;align=center;verticalAlign=middle;resizable=0;points=[];autosize=1;strokeColor=none;fillColor=none;" parent="1" vertex="1">
          <mxGeometry x="-190.5" y="5290" width="150" height="30" as="geometry" />
        </mxCell>
        <mxCell id="ovPs951zUUgyFUGP9RZu-41" value="encoder/decoder" style="rounded=1;whiteSpace=wrap;html=1;" parent="1" vertex="1">
          <mxGeometry x="-155.5" y="5450" width="115" height="40" as="geometry" />
        </mxCell>
        <mxCell id="ovPs951zUUgyFUGP9RZu-42" value="RequestInterceptor" style="rounded=1;whiteSpace=wrap;html=1;" parent="1" vertex="1">
          <mxGeometry x="-25.5" y="5450" width="125" height="40" as="geometry" />
        </mxCell>
        <mxCell id="ovPs951zUUgyFUGP9RZu-43" value="contract" style="rounded=1;whiteSpace=wrap;html=1;" parent="1" vertex="1">
          <mxGeometry x="112" y="5450" width="102.5" height="40" as="geometry" />
        </mxCell>
        <mxCell id="ovPs951zUUgyFUGP9RZu-44" value="Target" style="rounded=1;whiteSpace=wrap;html=1;" parent="1" vertex="1">
          <mxGeometry x="-90.5" y="5335" width="125" height="40" as="geometry" />
        </mxCell>
        <mxCell id="ovPs951zUUgyFUGP9RZu-45" value="FallbackFactory" style="rounded=1;whiteSpace=wrap;html=1;" parent="1" vertex="1">
          <mxGeometry x="169.5" y="5335" width="125" height="40" as="geometry" />
        </mxCell>
        <mxCell id="ovPs951zUUgyFUGP9RZu-46" value="Retryer" style="rounded=1;whiteSpace=wrap;html=1;" parent="1" vertex="1">
          <mxGeometry x="234.5" y="5450" width="122.5" height="40" as="geometry" />
        </mxCell>
        <mxCell id="ovPs951zUUgyFUGP9RZu-47" value="Map&amp;lt;Method, MethodHandler&amp;gt;" style="text;html=1;align=center;verticalAlign=middle;resizable=0;points=[];autosize=1;strokeColor=none;fillColor=none;" parent="1" vertex="1">
          <mxGeometry x="-170.5" y="5400" width="190" height="30" as="geometry" />
        </mxCell>
        <mxCell id="ZrPeXIypVP3lfMweiKmu-18" style="edgeStyle=orthogonalEdgeStyle;rounded=0;orthogonalLoop=1;jettySize=auto;html=1;exitX=1;exitY=0.5;exitDx=0;exitDy=0;entryX=0;entryY=0.5;entryDx=0;entryDy=0;" parent="1" source="P8MECL5LfjzoDtP4DdAR-1" target="HCkOC1CJI_hwc8_c8_Th-30" edge="1">
          <mxGeometry relative="1" as="geometry" />
        </mxCell>
        <mxCell id="P8MECL5LfjzoDtP4DdAR-1" value="DispatcherServlet" style="rounded=1;whiteSpace=wrap;html=1;" parent="1" vertex="1">
          <mxGeometry x="-73.75" y="2198.75" width="120" height="60" as="geometry" />
        </mxCell>
        <mxCell id="T5hCsq0dW14gql95HTT5-4" value="target bean" style="rounded=1;whiteSpace=wrap;html=1;" parent="1" vertex="1">
          <mxGeometry x="632.13" y="609" width="433.75" height="40" as="geometry" />
        </mxCell>
        <mxCell id="T5hCsq0dW14gql95HTT5-7" value="" style="rounded=0;whiteSpace=wrap;html=1;" parent="1" vertex="1">
          <mxGeometry x="298.32" y="-580" width="510" height="280" as="geometry" />
        </mxCell>
        <mxCell id="T5hCsq0dW14gql95HTT5-8" value="environment" style="text;html=1;align=center;verticalAlign=middle;resizable=0;points=[];autosize=1;strokeColor=none;fillColor=none;" parent="1" vertex="1">
          <mxGeometry x="298.32" y="-580" width="90" height="30" as="geometry" />
        </mxCell>
        <mxCell id="T5hCsq0dW14gql95HTT5-9" value="List&amp;lt;PropertySource&amp;gt; &amp;amp;&amp;nbsp;activeProfiles" style="rounded=1;whiteSpace=wrap;html=1;" parent="1" vertex="1">
          <mxGeometry x="385" y="-533.5" width="332.5" height="60" as="geometry" />
        </mxCell>
        <mxCell id="T5hCsq0dW14gql95HTT5-17" style="edgeStyle=orthogonalEdgeStyle;rounded=0;orthogonalLoop=1;jettySize=auto;html=1;exitX=0.5;exitY=0;exitDx=0;exitDy=0;entryX=0.5;entryY=1;entryDx=0;entryDy=0;" parent="1" source="T5hCsq0dW14gql95HTT5-12" target="T5hCsq0dW14gql95HTT5-9" edge="1">
          <mxGeometry relative="1" as="geometry" />
        </mxCell>
        <mxCell id="T5hCsq0dW14gql95HTT5-12" value="" style="rounded=1;whiteSpace=wrap;html=1;" parent="1" vertex="1">
          <mxGeometry x="385" y="-430" width="332.5" height="90" as="geometry" />
        </mxCell>
        <mxCell id="T5hCsq0dW14gql95HTT5-13" value="PropertyResolver" style="text;html=1;align=center;verticalAlign=middle;resizable=0;points=[];autosize=1;strokeColor=none;fillColor=none;" parent="1" vertex="1">
          <mxGeometry x="375" y="-430" width="120" height="30" as="geometry" />
        </mxCell>
        <mxCell id="T5hCsq0dW14gql95HTT5-15" value="ConversionService" style="rounded=1;whiteSpace=wrap;html=1;" parent="1" vertex="1">
          <mxGeometry x="490" y="-405" width="120" height="40" as="geometry" />
        </mxCell>
        <mxCell id="T5hCsq0dW14gql95HTT5-21" value="BeanDefinition" style="text;html=1;align=center;verticalAlign=middle;resizable=0;points=[];autosize=1;strokeColor=none;fillColor=none;" parent="1" vertex="1">
          <mxGeometry x="1146.82" y="32.5" width="100" height="30" as="geometry" />
        </mxCell>
        <mxCell id="ZrPeXIypVP3lfMweiKmu-1" value="BeanFactory" style="text;html=1;strokeColor=none;fillColor=none;align=center;verticalAlign=middle;whiteSpace=wrap;rounded=0;" parent="1" vertex="1">
          <mxGeometry x="26.07" y="-150" width="77.75" height="30" as="geometry" />
        </mxCell>
        <mxCell id="ZrPeXIypVP3lfMweiKmu-3" value="ApplicationContext" style="text;html=1;align=center;verticalAlign=middle;resizable=0;points=[];autosize=1;strokeColor=none;fillColor=none;" parent="1" vertex="1">
          <mxGeometry x="562.82" y="-150" width="120" height="30" as="geometry" />
        </mxCell>
        <mxCell id="ZrPeXIypVP3lfMweiKmu-4" value="Advisor" style="text;html=1;align=center;verticalAlign=middle;resizable=0;points=[];autosize=1;strokeColor=none;fillColor=none;" parent="1" vertex="1">
          <mxGeometry x="597" y="730" width="60" height="30" as="geometry" />
        </mxCell>
        <mxCell id="ZrPeXIypVP3lfMweiKmu-6" style="edgeStyle=orthogonalEdgeStyle;rounded=0;orthogonalLoop=1;jettySize=auto;html=1;exitX=1;exitY=0.5;exitDx=0;exitDy=0;entryX=0;entryY=0.5;entryDx=0;entryDy=0;" parent="1" source="ZrPeXIypVP3lfMweiKmu-5" target="aqGw6CmQRWcVKoaSbXMj-14" edge="1">
          <mxGeometry relative="1" as="geometry" />
        </mxCell>
        <mxCell id="ZrPeXIypVP3lfMweiKmu-5" value="AbstractAutoProxyCreator&lt;br&gt;getEarlyBeanReference/postProcessAfterInitialization触发AOP&lt;br&gt;循环依赖或者初始化后" style="rounded=1;whiteSpace=wrap;html=1;" parent="1" vertex="1">
          <mxGeometry x="35.56" y="750" width="398" height="120" as="geometry" />
        </mxCell>
        <mxCell id="ZrPeXIypVP3lfMweiKmu-13" style="edgeStyle=orthogonalEdgeStyle;rounded=0;orthogonalLoop=1;jettySize=auto;html=1;exitX=0.5;exitY=1;exitDx=0;exitDy=0;entryX=0.5;entryY=0;entryDx=0;entryDy=0;" parent="1" source="ZrPeXIypVP3lfMweiKmu-9" target="HCkOC1CJI_hwc8_c8_Th-4" edge="1">
          <mxGeometry relative="1" as="geometry" />
        </mxCell>
        <mxCell id="ZrPeXIypVP3lfMweiKmu-14" style="edgeStyle=orthogonalEdgeStyle;rounded=0;orthogonalLoop=1;jettySize=auto;html=1;exitX=0.5;exitY=1;exitDx=0;exitDy=0;entryX=0.5;entryY=0;entryDx=0;entryDy=0;" parent="1" source="ZrPeXIypVP3lfMweiKmu-9" target="HCkOC1CJI_hwc8_c8_Th-8" edge="1">
          <mxGeometry relative="1" as="geometry" />
        </mxCell>
        <mxCell id="ZrPeXIypVP3lfMweiKmu-9" value="TransactionAttributeSourcePointcut&lt;br&gt;&lt;br&gt;TransactionInterceptor（MethodInterceptor，是一个Advice）" style="rounded=1;whiteSpace=wrap;html=1;fillColor=#f5f5f5;fontColor=#333333;strokeColor=#666666;" parent="1" vertex="1">
          <mxGeometry x="160.5" y="1290" width="670" height="77" as="geometry" />
        </mxCell>
        <mxCell id="ZrPeXIypVP3lfMweiKmu-15" value="" style="endArrow=classic;html=1;rounded=0;entryX=0;entryY=0.5;entryDx=0;entryDy=0;" parent="1" target="P8MECL5LfjzoDtP4DdAR-1" edge="1">
          <mxGeometry width="50" height="50" relative="1" as="geometry">
            <mxPoint x="-129.25" y="2230" as="sourcePoint" />
            <mxPoint x="-149.25" y="2270" as="targetPoint" />
          </mxGeometry>
        </mxCell>
        <mxCell id="ZrPeXIypVP3lfMweiKmu-16" value="request" style="text;html=1;align=center;verticalAlign=middle;resizable=0;points=[];autosize=1;strokeColor=none;fillColor=none;" parent="1" vertex="1">
          <mxGeometry x="-161.75" y="2197.5" width="60" height="30" as="geometry" />
        </mxCell>
        <mxCell id="ZrPeXIypVP3lfMweiKmu-19" value="" style="shape=flexArrow;endArrow=classic;html=1;rounded=0;" parent="1" edge="1">
          <mxGeometry width="50" height="50" relative="1" as="geometry">
            <mxPoint x="495.25" y="1241" as="sourcePoint" />
            <mxPoint x="495" y="1291" as="targetPoint" />
          </mxGeometry>
        </mxCell>
        <mxCell id="ZrPeXIypVP3lfMweiKmu-20" value="" style="shape=flexArrow;endArrow=classic;html=1;rounded=0;" parent="1" edge="1">
          <mxGeometry width="50" height="50" relative="1" as="geometry">
            <mxPoint x="324.31" y="-385.5" as="sourcePoint" />
            <mxPoint x="384.31" y="-385.5" as="targetPoint" />
          </mxGeometry>
        </mxCell>
        <mxCell id="ZrPeXIypVP3lfMweiKmu-21" value="" style="shape=flexArrow;endArrow=classic;html=1;rounded=0;" parent="1" edge="1">
          <mxGeometry width="50" height="50" relative="1" as="geometry">
            <mxPoint x="1144.32" y="47" as="sourcePoint" />
            <mxPoint x="1064.32" y="47" as="targetPoint" />
          </mxGeometry>
        </mxCell>
        <mxCell id="ZrPeXIypVP3lfMweiKmu-22" value="" style="shape=flexArrow;endArrow=classic;html=1;rounded=0;" parent="1" edge="1">
          <mxGeometry width="50" height="50" relative="1" as="geometry">
            <mxPoint x="-35" y="809.5" as="sourcePoint" />
            <mxPoint x="24.999999999999996" y="809.5" as="targetPoint" />
          </mxGeometry>
        </mxCell>
        <mxCell id="ZrPeXIypVP3lfMweiKmu-23" value="returnValueHandlers&lt;br&gt;写body" style="text;html=1;align=center;verticalAlign=middle;resizable=0;points=[];autosize=1;strokeColor=none;fillColor=none;" parent="1" vertex="1">
          <mxGeometry x="746.75" y="2175" width="130" height="40" as="geometry" />
        </mxCell>
        <mxCell id="fSXdJqcKQk1bGgUf9QQ9-1" value="argumentResolvers&lt;br style=&quot;border-color: var(--border-color);&quot;&gt;&lt;span style=&quot;&quot;&gt;读body&lt;/span&gt;" style="text;html=1;align=center;verticalAlign=middle;resizable=0;points=[];autosize=1;strokeColor=none;fillColor=none;" parent="1" vertex="1">
          <mxGeometry x="753" y="2043.75" width="130" height="40" as="geometry" />
        </mxCell>
        <mxCell id="fSXdJqcKQk1bGgUf9QQ9-2" value="WebDataBinder" style="rounded=1;whiteSpace=wrap;html=1;" parent="1" vertex="1">
          <mxGeometry x="728" y="2088.75" width="180" height="37.5" as="geometry" />
        </mxCell>
        <mxCell id="fSXdJqcKQk1bGgUf9QQ9-6" value="" style="shape=flexArrow;endArrow=classic;html=1;rounded=0;" parent="1" edge="1">
          <mxGeometry width="50" height="50" relative="1" as="geometry">
            <mxPoint x="-180" y="2975.54" as="sourcePoint" />
            <mxPoint x="-80" y="2975.54" as="targetPoint" />
          </mxGeometry>
        </mxCell>
        <mxCell id="fSXdJqcKQk1bGgUf9QQ9-18" value="StatementHandler&lt;br&gt;PreparedStatement&lt;br&gt;SqlNode、ParameterHandler&lt;br&gt;ResultSetHandler" style="rounded=1;whiteSpace=wrap;html=1;" parent="1" vertex="1">
          <mxGeometry x="562.5" y="2924.48" width="240" height="108" as="geometry" />
        </mxCell>
        <mxCell id="OETXXq7D0TBz0dgVjHIm-29" style="edgeStyle=orthogonalEdgeStyle;rounded=0;orthogonalLoop=1;jettySize=auto;html=1;exitX=0.5;exitY=1;exitDx=0;exitDy=0;entryX=0.5;entryY=0;entryDx=0;entryDy=0;" parent="1" source="OETXXq7D0TBz0dgVjHIm-2" target="OETXXq7D0TBz0dgVjHIm-3" edge="1">
          <mxGeometry relative="1" as="geometry" />
        </mxCell>
        <mxCell id="UwHULa6n7ALWQ-vL5ENA-2" style="edgeStyle=orthogonalEdgeStyle;rounded=0;orthogonalLoop=1;jettySize=auto;html=1;exitX=1;exitY=0.5;exitDx=0;exitDy=0;entryX=0;entryY=0.5;entryDx=0;entryDy=0;" parent="1" source="OETXXq7D0TBz0dgVjHIm-2" target="OETXXq7D0TBz0dgVjHIm-22" edge="1">
          <mxGeometry relative="1" as="geometry" />
        </mxCell>
        <mxCell id="OETXXq7D0TBz0dgVjHIm-2" value="connection&lt;br&gt;proxied" style="rounded=1;whiteSpace=wrap;html=1;" parent="1" vertex="1">
          <mxGeometry x="1157.5" y="2982.48" width="270" height="60" as="geometry" />
        </mxCell>
        <mxCell id="OETXXq7D0TBz0dgVjHIm-30" style="edgeStyle=orthogonalEdgeStyle;rounded=0;orthogonalLoop=1;jettySize=auto;html=1;exitX=0.5;exitY=1;exitDx=0;exitDy=0;entryX=0.5;entryY=0;entryDx=0;entryDy=0;" parent="1" source="OETXXq7D0TBz0dgVjHIm-3" target="OETXXq7D0TBz0dgVjHIm-4" edge="1">
          <mxGeometry relative="1" as="geometry" />
        </mxCell>
        <mxCell id="OETXXq7D0TBz0dgVjHIm-3" value="statement execute sql&lt;br&gt;proxied" style="rounded=1;whiteSpace=wrap;html=1;" parent="1" vertex="1">
          <mxGeometry x="1157.5" y="3072.4799999999996" width="270" height="60" as="geometry" />
        </mxCell>
        <mxCell id="OETXXq7D0TBz0dgVjHIm-4" value="resultSet：一张表上的行指针，get/update local&lt;br&gt;proxied" style="rounded=1;whiteSpace=wrap;html=1;" parent="1" vertex="1">
          <mxGeometry x="1146.25" y="3170.02" width="292.5" height="79.98" as="geometry" />
        </mxCell>
        <mxCell id="OETXXq7D0TBz0dgVjHIm-5" value="driverManager：spi" style="text;html=1;align=center;verticalAlign=middle;resizable=0;points=[];autosize=1;strokeColor=none;fillColor=none;" parent="1" vertex="1">
          <mxGeometry x="1105" y="2810" width="130" height="30" as="geometry" />
        </mxCell>
        <mxCell id="OETXXq7D0TBz0dgVjHIm-6" value="mysql drvier" style="rounded=1;whiteSpace=wrap;html=1;" parent="1" vertex="1">
          <mxGeometry x="1177.5" y="2858.48" width="100" height="40" as="geometry" />
        </mxCell>
        <mxCell id="OETXXq7D0TBz0dgVjHIm-7" value="postgresql driver" style="rounded=1;whiteSpace=wrap;html=1;" parent="1" vertex="1">
          <mxGeometry x="1307.5" y="2858.48" width="100" height="40" as="geometry" />
        </mxCell>
        <mxCell id="OETXXq7D0TBz0dgVjHIm-16" value="SynchronousQueue" style="rounded=1;whiteSpace=wrap;html=1;" parent="1" vertex="1">
          <mxGeometry x="1782.5" y="2912.8" width="120" height="60" as="geometry" />
        </mxCell>
        <mxCell id="OETXXq7D0TBz0dgVjHIm-17" value="" style="endArrow=classic;html=1;rounded=0;entryX=0.25;entryY=0;entryDx=0;entryDy=0;" parent="1" target="OETXXq7D0TBz0dgVjHIm-22" edge="1">
          <mxGeometry width="50" height="50" relative="1" as="geometry">
            <mxPoint x="1722.5" y="2901.78" as="sourcePoint" />
            <mxPoint x="1722.5" y="2891.78" as="targetPoint" />
          </mxGeometry>
        </mxCell>
        <mxCell id="OETXXq7D0TBz0dgVjHIm-25" style="edgeStyle=orthogonalEdgeStyle;rounded=0;orthogonalLoop=1;jettySize=auto;html=1;exitX=0.5;exitY=0;exitDx=0;exitDy=0;entryX=0.5;entryY=1;entryDx=0;entryDy=0;" parent="1" source="OETXXq7D0TBz0dgVjHIm-20" target="OETXXq7D0TBz0dgVjHIm-16" edge="1">
          <mxGeometry relative="1" as="geometry" />
        </mxCell>
        <mxCell id="OETXXq7D0TBz0dgVjHIm-20" value="Connection&lt;br style=&quot;border-color: var(--border-color);&quot;&gt;state" style="rounded=0;whiteSpace=wrap;html=1;" parent="1" vertex="1">
          <mxGeometry x="1801.25" y="3100.03" width="82.5" height="60" as="geometry" />
        </mxCell>
        <mxCell id="OETXXq7D0TBz0dgVjHIm-23" value="DataSource" style="text;html=1;align=center;verticalAlign=middle;resizable=0;points=[];autosize=1;strokeColor=none;fillColor=none;" parent="1" vertex="1">
          <mxGeometry x="1602.5" y="3053.28" width="90" height="30" as="geometry" />
        </mxCell>
        <mxCell id="OETXXq7D0TBz0dgVjHIm-24" value="" style="endArrow=classic;html=1;rounded=0;entryX=0.5;entryY=0;entryDx=0;entryDy=0;" parent="1" target="OETXXq7D0TBz0dgVjHIm-16" edge="1">
          <mxGeometry width="50" height="50" relative="1" as="geometry">
            <mxPoint x="1842.5" y="2840.8" as="sourcePoint" />
            <mxPoint x="1932.5" y="2810.8" as="targetPoint" />
          </mxGeometry>
        </mxCell>
        <mxCell id="OETXXq7D0TBz0dgVjHIm-26" value="free" style="text;html=1;align=center;verticalAlign=middle;resizable=0;points=[];autosize=1;strokeColor=none;fillColor=none;" parent="1" vertex="1">
          <mxGeometry x="1842.5" y="2991.78" width="40" height="30" as="geometry" />
        </mxCell>
        <mxCell id="OETXXq7D0TBz0dgVjHIm-31" value="" style="endArrow=classic;html=1;rounded=0;entryX=0.5;entryY=0;entryDx=0;entryDy=0;" parent="1" edge="1">
          <mxGeometry width="50" height="50" relative="1" as="geometry">
            <mxPoint x="1810" y="2842.38" as="sourcePoint" />
            <mxPoint x="1810.5" y="2914.58" as="targetPoint" />
          </mxGeometry>
        </mxCell>
        <mxCell id="OETXXq7D0TBz0dgVjHIm-32" value="" style="endArrow=classic;html=1;rounded=0;entryX=0.5;entryY=0;entryDx=0;entryDy=0;" parent="1" edge="1">
          <mxGeometry width="50" height="50" relative="1" as="geometry">
            <mxPoint x="1873" y="2842" as="sourcePoint" />
            <mxPoint x="1872.5" y="2914.58" as="targetPoint" />
          </mxGeometry>
        </mxCell>
        <mxCell id="OETXXq7D0TBz0dgVjHIm-33" value="Connection&lt;br style=&quot;border-color: var(--border-color);&quot;&gt;state" style="rounded=0;whiteSpace=wrap;html=1;" parent="1" vertex="1">
          <mxGeometry x="1718.75" y="3100.03" width="82.5" height="60" as="geometry" />
        </mxCell>
        <mxCell id="OETXXq7D0TBz0dgVjHIm-34" value="Connection&lt;br style=&quot;border-color: var(--border-color);&quot;&gt;state" style="rounded=0;whiteSpace=wrap;html=1;" parent="1" vertex="1">
          <mxGeometry x="1636.25" y="3100.03" width="82.5" height="60" as="geometry" />
        </mxCell>
        <mxCell id="OETXXq7D0TBz0dgVjHIm-35" value="Connection&lt;br style=&quot;border-color: var(--border-color);&quot;&gt;state" style="rounded=0;whiteSpace=wrap;html=1;endArrow=none;dashed=1;html=1;" parent="1" vertex="1">
          <mxGeometry x="1883.75" y="3100.03" width="82.5" height="60" as="geometry" />
        </mxCell>
        <mxCell id="OETXXq7D0TBz0dgVjHIm-36" value="Connection&lt;br style=&quot;border-color: var(--border-color);&quot;&gt;state" style="rounded=0;whiteSpace=wrap;html=1;endArrow=none;dashed=1;html=1;" parent="1" vertex="1">
          <mxGeometry x="1966.25" y="3100.03" width="82.5" height="60" as="geometry" />
        </mxCell>
        <mxCell id="OETXXq7D0TBz0dgVjHIm-46" style="edgeStyle=orthogonalEdgeStyle;rounded=0;orthogonalLoop=1;jettySize=auto;html=1;exitX=0.5;exitY=1;exitDx=0;exitDy=0;entryX=0.5;entryY=0;entryDx=0;entryDy=0;" parent="1" source="OETXXq7D0TBz0dgVjHIm-37" target="OETXXq7D0TBz0dgVjHIm-38" edge="1">
          <mxGeometry relative="1" as="geometry" />
        </mxCell>
        <mxCell id="OETXXq7D0TBz0dgVjHIm-37" value="server&lt;br&gt;触发init，start链式反应" style="rounded=1;whiteSpace=wrap;html=1;" parent="1" vertex="1">
          <mxGeometry x="1790" y="1830" width="220" height="60" as="geometry" />
        </mxCell>
        <mxCell id="OETXXq7D0TBz0dgVjHIm-64" style="edgeStyle=orthogonalEdgeStyle;rounded=0;orthogonalLoop=1;jettySize=auto;html=1;exitX=0.5;exitY=1;exitDx=0;exitDy=0;entryX=0.5;entryY=0;entryDx=0;entryDy=0;" parent="1" source="OETXXq7D0TBz0dgVjHIm-38" target="OETXXq7D0TBz0dgVjHIm-57" edge="1">
          <mxGeometry relative="1" as="geometry" />
        </mxCell>
        <mxCell id="V2kQxAzgLIzO_4P0HWAn-11" style="edgeStyle=orthogonalEdgeStyle;rounded=0;orthogonalLoop=1;jettySize=auto;html=1;exitX=0.5;exitY=1;exitDx=0;exitDy=0;entryX=0.5;entryY=0;entryDx=0;entryDy=0;" parent="1" source="OETXXq7D0TBz0dgVjHIm-38" target="OETXXq7D0TBz0dgVjHIm-67" edge="1">
          <mxGeometry relative="1" as="geometry">
            <mxPoint x="1690" y="2050" as="targetPoint" />
          </mxGeometry>
        </mxCell>
        <mxCell id="OETXXq7D0TBz0dgVjHIm-38" value="List&amp;lt;Service&amp;gt;" style="rounded=1;whiteSpace=wrap;html=1;" parent="1" vertex="1">
          <mxGeometry x="1840" y="1933.75" width="120" height="60" as="geometry" />
        </mxCell>
        <mxCell id="OETXXq7D0TBz0dgVjHIm-55" style="edgeStyle=orthogonalEdgeStyle;rounded=0;orthogonalLoop=1;jettySize=auto;html=1;exitX=0.5;exitY=1;exitDx=0;exitDy=0;entryX=0.5;entryY=0;entryDx=0;entryDy=0;" parent="1" source="OETXXq7D0TBz0dgVjHIm-40" target="OETXXq7D0TBz0dgVjHIm-53" edge="1">
          <mxGeometry relative="1" as="geometry" />
        </mxCell>
        <mxCell id="OETXXq7D0TBz0dgVjHIm-40" value="engine" style="rounded=1;whiteSpace=wrap;html=1;" parent="1" vertex="1">
          <mxGeometry x="2000" y="2121.25" width="147.75" height="60" as="geometry" />
        </mxCell>
        <mxCell id="OETXXq7D0TBz0dgVjHIm-51" style="edgeStyle=orthogonalEdgeStyle;rounded=0;orthogonalLoop=1;jettySize=auto;html=1;exitX=0.5;exitY=1;exitDx=0;exitDy=0;entryX=0.5;entryY=0;entryDx=0;entryDy=0;" parent="1" source="OETXXq7D0TBz0dgVjHIm-44" target="OETXXq7D0TBz0dgVjHIm-45" edge="1">
          <mxGeometry relative="1" as="geometry" />
        </mxCell>
        <mxCell id="OETXXq7D0TBz0dgVjHIm-44" value="List&amp;lt;Context&amp;gt;&lt;br&gt;WebAppClassLoader" style="rounded=1;whiteSpace=wrap;html=1;" parent="1" vertex="1">
          <mxGeometry x="2000" y="2312.5" width="148.13" height="60" as="geometry" />
        </mxCell>
        <mxCell id="OETXXq7D0TBz0dgVjHIm-45" value="List&amp;lt;Wrapper/Servlet&amp;gt;&lt;br&gt;FilterChain&lt;br&gt;Servlet" style="rounded=1;whiteSpace=wrap;html=1;" parent="1" vertex="1">
          <mxGeometry x="2000" y="2403.75" width="152.5" height="76.25" as="geometry" />
        </mxCell>
        <mxCell id="OETXXq7D0TBz0dgVjHIm-56" style="edgeStyle=orthogonalEdgeStyle;rounded=0;orthogonalLoop=1;jettySize=auto;html=1;exitX=0.5;exitY=1;exitDx=0;exitDy=0;entryX=0.5;entryY=0;entryDx=0;entryDy=0;" parent="1" source="OETXXq7D0TBz0dgVjHIm-53" target="OETXXq7D0TBz0dgVjHIm-44" edge="1">
          <mxGeometry relative="1" as="geometry" />
        </mxCell>
        <mxCell id="OETXXq7D0TBz0dgVjHIm-53" value="List&amp;lt;Host&amp;gt;" style="rounded=1;whiteSpace=wrap;html=1;" parent="1" vertex="1">
          <mxGeometry x="2000" y="2216.25" width="148.13" height="60" as="geometry" />
        </mxCell>
        <mxCell id="OETXXq7D0TBz0dgVjHIm-58" value="container" style="text;html=1;align=center;verticalAlign=middle;resizable=0;points=[];autosize=1;strokeColor=none;fillColor=none;" parent="1" vertex="1">
          <mxGeometry x="1966.25" y="2088.75" width="70" height="30" as="geometry" />
        </mxCell>
        <mxCell id="OETXXq7D0TBz0dgVjHIm-59" value="pipeline" style="rounded=1;whiteSpace=wrap;html=1;fillColor=#f5f5f5;fontColor=#333333;strokeColor=#666666;" parent="1" vertex="1">
          <mxGeometry x="2193.75" y="2120.63" width="70" height="359.37" as="geometry" />
        </mxCell>
        <mxCell id="OETXXq7D0TBz0dgVjHIm-61" value="lifecycle：init，start，stop，destroy等" style="rounded=1;whiteSpace=wrap;html=1;fillColor=#f5f5f5;fontColor=#333333;strokeColor=#666666;" parent="1" vertex="1">
          <mxGeometry x="1470" y="2530" width="930" height="50" as="geometry" />
        </mxCell>
        <mxCell id="OETXXq7D0TBz0dgVjHIm-62" value="Valve" style="ellipse;whiteSpace=wrap;html=1;" parent="1" vertex="1">
          <mxGeometry x="2203.75" y="2328.75" width="50" height="50" as="geometry" />
        </mxCell>
        <mxCell id="OETXXq7D0TBz0dgVjHIm-63" value="......" style="ellipse;whiteSpace=wrap;html=1;" parent="1" vertex="1">
          <mxGeometry x="2203.75" y="2378.75" width="50" height="50" as="geometry" />
        </mxCell>
        <mxCell id="OETXXq7D0TBz0dgVjHIm-66" value="List&amp;lt;Connector&amp;gt; 配置ServerProperties" style="text;html=1;align=center;verticalAlign=middle;resizable=0;points=[];autosize=1;strokeColor=none;fillColor=none;" parent="1" vertex="1">
          <mxGeometry x="1483.75" y="2090" width="230" height="30" as="geometry" />
        </mxCell>
        <mxCell id="OETXXq7D0TBz0dgVjHIm-69" value="" style="rounded=1;whiteSpace=wrap;html=1;" parent="1" vertex="1">
          <mxGeometry x="1513.75" y="2157.5" width="340" height="273.75" as="geometry" />
        </mxCell>
        <mxCell id="OETXXq7D0TBz0dgVjHIm-72" value="ProtocolHandler（Http11NioProtocol）" style="text;html=1;align=center;verticalAlign=middle;resizable=0;points=[];autosize=1;strokeColor=none;fillColor=none;" parent="1" vertex="1">
          <mxGeometry x="1513.75" y="2158.75" width="230" height="30" as="geometry" />
        </mxCell>
        <mxCell id="OETXXq7D0TBz0dgVjHIm-74" value="" style="rounded=1;whiteSpace=wrap;html=1;fillColor=#f5f5f5;fontColor=#333333;strokeColor=#666666;" parent="1" vertex="1">
          <mxGeometry x="1552.5" y="2225" width="260" height="130" as="geometry" />
        </mxCell>
        <mxCell id="OETXXq7D0TBz0dgVjHIm-75" value="NioEndpoint" style="text;html=1;align=center;verticalAlign=middle;resizable=0;points=[];autosize=1;strokeColor=none;fillColor=none;" parent="1" vertex="1">
          <mxGeometry x="1552.5" y="2225" width="90" height="30" as="geometry" />
        </mxCell>
        <mxCell id="OETXXq7D0TBz0dgVjHIm-71" value="org.apache.tomcat.ThreadPoolExecutor" style="text;html=1;align=center;verticalAlign=middle;resizable=0;points=[];autosize=1;strokeColor=none;fillColor=none;" parent="1" vertex="1">
          <mxGeometry x="1562.5" y="2275" width="240" height="30" as="geometry" />
        </mxCell>
        <mxCell id="GXHC1qzvz30r8LCaRYrL-10" style="edgeStyle=orthogonalEdgeStyle;rounded=0;orthogonalLoop=1;jettySize=auto;html=1;exitX=1;exitY=0.5;exitDx=0;exitDy=0;" parent="1" source="GXHC1qzvz30r8LCaRYrL-1" target="GXHC1qzvz30r8LCaRYrL-2" edge="1">
          <mxGeometry relative="1" as="geometry" />
        </mxCell>
        <mxCell id="GXHC1qzvz30r8LCaRYrL-1" value="DispatcherHandler" style="rounded=1;whiteSpace=wrap;html=1;" parent="1" vertex="1">
          <mxGeometry x="39.43" y="4300" width="120" height="80" as="geometry" />
        </mxCell>
        <mxCell id="GXHC1qzvz30r8LCaRYrL-11" style="edgeStyle=orthogonalEdgeStyle;rounded=0;orthogonalLoop=1;jettySize=auto;html=1;exitX=1;exitY=0.5;exitDx=0;exitDy=0;entryX=0;entryY=0.5;entryDx=0;entryDy=0;" parent="1" source="GXHC1qzvz30r8LCaRYrL-2" target="GXHC1qzvz30r8LCaRYrL-5" edge="1">
          <mxGeometry relative="1" as="geometry" />
        </mxCell>
        <mxCell id="GXHC1qzvz30r8LCaRYrL-2" value="" style="rounded=0;whiteSpace=wrap;html=1;" parent="1" vertex="1">
          <mxGeometry x="227.18" y="4250" width="228.5" height="180" as="geometry" />
        </mxCell>
        <mxCell id="GXHC1qzvz30r8LCaRYrL-3" value="RoutePredicateHandlerMapping" style="text;html=1;align=center;verticalAlign=middle;resizable=0;points=[];autosize=1;strokeColor=none;fillColor=none;" parent="1" vertex="1">
          <mxGeometry x="227.18" y="4250" width="190" height="30" as="geometry" />
        </mxCell>
        <mxCell id="GXHC1qzvz30r8LCaRYrL-4" value="CompositeRouteLocator&lt;br&gt;RouteDefinitionLocator" style="rounded=1;whiteSpace=wrap;html=1;" parent="1" vertex="1">
          <mxGeometry x="258.43" y="4310" width="166" height="60" as="geometry" />
        </mxCell>
        <mxCell id="21ADhYOM5bDmx4pO5tFE-5" style="edgeStyle=orthogonalEdgeStyle;rounded=0;orthogonalLoop=1;jettySize=auto;html=1;exitX=1;exitY=0.5;exitDx=0;exitDy=0;entryX=0;entryY=0.5;entryDx=0;entryDy=0;" parent="1" source="GXHC1qzvz30r8LCaRYrL-5" target="GXHC1qzvz30r8LCaRYrL-9" edge="1">
          <mxGeometry relative="1" as="geometry" />
        </mxCell>
        <mxCell id="GXHC1qzvz30r8LCaRYrL-5" value="" style="rounded=0;whiteSpace=wrap;html=1;" parent="1" vertex="1">
          <mxGeometry x="508.68" y="4180" width="453.75" height="320" as="geometry" />
        </mxCell>
        <mxCell id="GXHC1qzvz30r8LCaRYrL-8" value="FilteringWebHandler" style="text;html=1;align=center;verticalAlign=middle;resizable=0;points=[];autosize=1;strokeColor=none;fillColor=none;" parent="1" vertex="1">
          <mxGeometry x="508.68" y="4180" width="130" height="30" as="geometry" />
        </mxCell>
        <mxCell id="GXHC1qzvz30r8LCaRYrL-9" value="HandlerAdapter&lt;br&gt;handle()" style="rounded=1;whiteSpace=wrap;html=1;" parent="1" vertex="1">
          <mxGeometry x="1004.25" y="4297.5" width="142" height="85" as="geometry" />
        </mxCell>
        <mxCell id="GXHC1qzvz30r8LCaRYrL-15" value="ServiceRegistry" style="text;html=1;align=center;verticalAlign=middle;resizable=0;points=[];autosize=1;strokeColor=none;fillColor=none;" parent="1" vertex="1">
          <mxGeometry x="-132.28" y="3727.5" width="110" height="30" as="geometry" />
        </mxCell>
        <mxCell id="KRev_iM4Jv4Y9EaLXWhe-55" value="Registration extends ServiceInstance&lt;br&gt;RateLimiter" style="rounded=1;whiteSpace=wrap;html=1;" parent="1" vertex="1">
          <mxGeometry x="-104.14" y="3780" width="254.72" height="60" as="geometry" />
        </mxCell>
        <mxCell id="GXHC1qzvz30r8LCaRYrL-20" value="get FeignClient by serviceId" style="text;html=1;align=center;verticalAlign=middle;resizable=0;points=[];autosize=1;strokeColor=none;fillColor=none;" parent="1" vertex="1">
          <mxGeometry x="335" y="5625" width="170" height="30" as="geometry" />
        </mxCell>
        <mxCell id="GXHC1qzvz30r8LCaRYrL-24" value="LoadBalancerClient：&lt;br&gt;持有LoadBalancerClientFactory.getLoadBalancer()&lt;br&gt;ServiceInstanceListSupplier：getByRequest" style="text;html=1;align=left;verticalAlign=middle;resizable=0;points=[];autosize=1;strokeColor=none;fillColor=none;" parent="1" vertex="1">
          <mxGeometry x="512.5" y="3670" width="290" height="60" as="geometry" />
        </mxCell>
        <mxCell id="GXHC1qzvz30r8LCaRYrL-26" value="RetryableClient：持有RetryFactory&lt;br&gt;AnnotationAwareRetryOperationsInterceptor" style="text;html=1;align=left;verticalAlign=middle;resizable=0;points=[];autosize=1;strokeColor=none;fillColor=none;" parent="1" vertex="1">
          <mxGeometry x="420" y="3580" width="260" height="40" as="geometry" />
        </mxCell>
        <mxCell id="GXHC1qzvz30r8LCaRYrL-29" value="配置监听、刷新&lt;br&gt;定时任务LongPollTask&lt;br&gt;Listener" style="rounded=1;whiteSpace=wrap;html=1;" parent="1" vertex="1">
          <mxGeometry x="1263.5" y="3740" width="205" height="150" as="geometry" />
        </mxCell>
        <mxCell id="GXHC1qzvz30r8LCaRYrL-32" value="namespace&lt;br style=&quot;border-color: var(--border-color);&quot;&gt;group&lt;br style=&quot;border-color: var(--border-color);&quot;&gt;serviceId/dataId" style="rounded=1;whiteSpace=wrap;html=1;" parent="1" vertex="1">
          <mxGeometry x="1240" y="3520" width="540" height="90" as="geometry" />
        </mxCell>
        <mxCell id="GXHC1qzvz30r8LCaRYrL-33" value="服务注册、发现&lt;br&gt;定时任务HeartBeatTask&lt;br&gt;定时任务UpdateServiceTask&lt;br&gt;Listener" style="rounded=1;whiteSpace=wrap;html=1;" parent="1" vertex="1">
          <mxGeometry x="1552.5" y="3740" width="205" height="150" as="geometry" />
        </mxCell>
        <mxCell id="GXHC1qzvz30r8LCaRYrL-34" value="NacosNamingService" style="text;html=1;align=center;verticalAlign=middle;resizable=0;points=[];autosize=1;strokeColor=none;fillColor=none;" parent="1" vertex="1">
          <mxGeometry x="1546.88" y="3740" width="140" height="30" as="geometry" />
        </mxCell>
        <mxCell id="GXHC1qzvz30r8LCaRYrL-35" value="NacosConfigService" style="text;html=1;align=center;verticalAlign=middle;resizable=0;points=[];autosize=1;strokeColor=none;fillColor=none;" parent="1" vertex="1">
          <mxGeometry x="1263.5" y="3740" width="130" height="30" as="geometry" />
        </mxCell>
        <mxCell id="GXHC1qzvz30r8LCaRYrL-38" value="nacos server" style="text;html=1;align=center;verticalAlign=middle;resizable=0;points=[];autosize=1;strokeColor=none;fillColor=none;" parent="1" vertex="1">
          <mxGeometry x="1240" y="3520" width="90" height="30" as="geometry" />
        </mxCell>
        <mxCell id="GXHC1qzvz30r8LCaRYrL-44" value="nacose client" style="text;html=1;align=center;verticalAlign=middle;resizable=0;points=[];autosize=1;strokeColor=none;fillColor=none;" parent="1" vertex="1">
          <mxGeometry x="1212.5" y="3685" width="90" height="30" as="geometry" />
        </mxCell>
        <mxCell id="GXHC1qzvz30r8LCaRYrL-47" value="CircuitBreaker：CircuitBreakerFactory" style="text;html=1;align=center;verticalAlign=middle;resizable=0;points=[];autosize=1;strokeColor=none;fillColor=none;" parent="1" vertex="1">
          <mxGeometry x="377.82" y="3535" width="230" height="30" as="geometry" />
        </mxCell>
        <mxCell id="GXHC1qzvz30r8LCaRYrL-49" value="SentinelWebFluxFilter" style="rounded=1;whiteSpace=wrap;html=1;" parent="1" vertex="1">
          <mxGeometry x="1573.63" y="4410" width="183" height="40" as="geometry" />
        </mxCell>
        <mxCell id="GXHC1qzvz30r8LCaRYrL-50" value="CommonFilter" style="rounded=1;whiteSpace=wrap;html=1;" parent="1" vertex="1">
          <mxGeometry x="1574.5" y="4460" width="183" height="40" as="geometry" />
        </mxCell>
        <mxCell id="GXHC1qzvz30r8LCaRYrL-56" value="Map&amp;lt;ResourceWrapper, ProcessorSlotChain&amp;gt; chainMap" style="text;html=1;align=center;verticalAlign=middle;resizable=0;points=[];autosize=1;strokeColor=none;fillColor=none;" parent="1" vertex="1">
          <mxGeometry x="1401.25" y="4640" width="330" height="30" as="geometry" />
        </mxCell>
        <mxCell id="GXHC1qzvz30r8LCaRYrL-59" value="TreeNode &amp;amp; Rule" style="rounded=1;whiteSpace=wrap;html=1;" parent="1" vertex="1">
          <mxGeometry x="1606.25" y="4725" width="120" height="60" as="geometry" />
        </mxCell>
        <mxCell id="Sex7zkPJsZLkAJCv9PTU-4" style="edgeStyle=orthogonalEdgeStyle;rounded=0;orthogonalLoop=1;jettySize=auto;html=1;exitX=0.5;exitY=1;exitDx=0;exitDy=0;entryX=0.5;entryY=0;entryDx=0;entryDy=0;" parent="1" source="GXHC1qzvz30r8LCaRYrL-61" target="GXHC1qzvz30r8LCaRYrL-62" edge="1">
          <mxGeometry relative="1" as="geometry" />
        </mxCell>
        <mxCell id="GXHC1qzvz30r8LCaRYrL-61" value="sentinel server" style="rounded=1;whiteSpace=wrap;html=1;" parent="1" vertex="1">
          <mxGeometry x="1513.75" y="4250" width="303.75" height="60" as="geometry" />
        </mxCell>
        <mxCell id="GXHC1qzvz30r8LCaRYrL-69" value="from gateway、feign" style="text;html=1;align=center;verticalAlign=middle;resizable=0;points=[];autosize=1;strokeColor=none;fillColor=none;" parent="1" vertex="1">
          <mxGeometry x="573" y="3430" width="130" height="30" as="geometry" />
        </mxCell>
        <mxCell id="GXHC1qzvz30r8LCaRYrL-70" value="from gateway、service" style="text;html=1;align=center;verticalAlign=middle;resizable=0;points=[];autosize=1;strokeColor=none;fillColor=none;" parent="1" vertex="1">
          <mxGeometry x="17.249999999999993" y="3430" width="150" height="30" as="geometry" />
        </mxCell>
        <mxCell id="GXHC1qzvz30r8LCaRYrL-71" value="List&amp;lt;GlobalFilter&amp;gt;：&lt;br&gt;LoadBalancer、Sentinel、HttpClient" style="rounded=1;whiteSpace=wrap;html=1;" parent="1" vertex="1">
          <mxGeometry x="553.4999999999999" y="4291.5" width="365.37" height="85" as="geometry" />
        </mxCell>
        <mxCell id="GXHC1qzvz30r8LCaRYrL-72" value="List&amp;lt;GatewayFilterFactory&amp;gt;：&lt;br&gt;CircuitBreaker、AddRequestHeader、Retry、RateLimiter" style="rounded=1;whiteSpace=wrap;html=1;" parent="1" vertex="1">
          <mxGeometry x="555.8699999999999" y="4396.5" width="363" height="85" as="geometry" />
        </mxCell>
        <mxCell id="5GvychwW1Yd68G3pm8Jn-3" style="edgeStyle=orthogonalEdgeStyle;rounded=0;orthogonalLoop=1;jettySize=auto;html=1;exitX=1;exitY=0.25;exitDx=0;exitDy=0;entryX=0;entryY=0.25;entryDx=0;entryDy=0;" edge="1" parent="1" source="GXHC1qzvz30r8LCaRYrL-75" target="GXHC1qzvz30r8LCaRYrL-85">
          <mxGeometry relative="1" as="geometry" />
        </mxCell>
        <mxCell id="5GvychwW1Yd68G3pm8Jn-5" style="edgeStyle=orthogonalEdgeStyle;rounded=0;orthogonalLoop=1;jettySize=auto;html=1;exitX=0;exitY=0.75;exitDx=0;exitDy=0;entryX=1;entryY=0.25;entryDx=0;entryDy=0;" edge="1" parent="1" source="GXHC1qzvz30r8LCaRYrL-75" target="GXHC1qzvz30r8LCaRYrL-87">
          <mxGeometry relative="1" as="geometry" />
        </mxCell>
        <mxCell id="GXHC1qzvz30r8LCaRYrL-75" value="Resource Owner" style="rounded=1;whiteSpace=wrap;html=1;fillColor=#f5f5f5;fontColor=#333333;strokeColor=#666666;" parent="1" vertex="1">
          <mxGeometry x="164.06" y="6415" width="125.43" height="75" as="geometry" />
        </mxCell>
        <mxCell id="GXHC1qzvz30r8LCaRYrL-78" value="认证Authentication&lt;br&gt;授权Authority" style="text;html=1;align=center;verticalAlign=middle;resizable=0;points=[];autosize=1;strokeColor=none;fillColor=none;" parent="1" vertex="1">
          <mxGeometry x="64.06" y="6050" width="120" height="40" as="geometry" />
        </mxCell>
        <mxCell id="GXHC1qzvz30r8LCaRYrL-99" style="edgeStyle=orthogonalEdgeStyle;rounded=0;orthogonalLoop=1;jettySize=auto;html=1;exitX=0.25;exitY=1;exitDx=0;exitDy=0;entryX=0.25;entryY=0;entryDx=0;entryDy=0;" parent="1" source="GXHC1qzvz30r8LCaRYrL-80" target="GXHC1qzvz30r8LCaRYrL-81" edge="1">
          <mxGeometry relative="1" as="geometry" />
        </mxCell>
        <mxCell id="GXHC1qzvz30r8LCaRYrL-80" value="client：jwt、token" style="rounded=1;whiteSpace=wrap;html=1;" parent="1" vertex="1">
          <mxGeometry x="176.5" y="6090" width="211.62" height="60" as="geometry" />
        </mxCell>
        <mxCell id="GXHC1qzvz30r8LCaRYrL-100" style="edgeStyle=orthogonalEdgeStyle;rounded=0;orthogonalLoop=1;jettySize=auto;html=1;exitX=0.75;exitY=0;exitDx=0;exitDy=0;entryX=0.75;entryY=1;entryDx=0;entryDy=0;" parent="1" source="GXHC1qzvz30r8LCaRYrL-81" target="GXHC1qzvz30r8LCaRYrL-80" edge="1">
          <mxGeometry relative="1" as="geometry" />
        </mxCell>
        <mxCell id="GXHC1qzvz30r8LCaRYrL-81" value="server：session" style="rounded=1;whiteSpace=wrap;html=1;" parent="1" vertex="1">
          <mxGeometry x="175.69" y="6198" width="211.62" height="60" as="geometry" />
        </mxCell>
        <mxCell id="GXHC1qzvz30r8LCaRYrL-84" value="oauth2第三方授权Authorization" style="text;html=1;align=center;verticalAlign=middle;resizable=0;points=[];autosize=1;strokeColor=none;fillColor=none;" parent="1" vertex="1">
          <mxGeometry x="-17.310000000000002" y="6335" width="190" height="30" as="geometry" />
        </mxCell>
        <mxCell id="5GvychwW1Yd68G3pm8Jn-4" style="edgeStyle=orthogonalEdgeStyle;rounded=0;orthogonalLoop=1;jettySize=auto;html=1;exitX=0;exitY=0.75;exitDx=0;exitDy=0;entryX=1;entryY=0.75;entryDx=0;entryDy=0;" edge="1" parent="1" source="GXHC1qzvz30r8LCaRYrL-85" target="GXHC1qzvz30r8LCaRYrL-75">
          <mxGeometry relative="1" as="geometry" />
        </mxCell>
        <mxCell id="GXHC1qzvz30r8LCaRYrL-85" value="Authorization Server" style="rounded=1;whiteSpace=wrap;html=1;" parent="1" vertex="1">
          <mxGeometry x="359.75" y="6415" width="181.63" height="75" as="geometry" />
        </mxCell>
        <mxCell id="GXHC1qzvz30r8LCaRYrL-86" value="Resource Server" style="rounded=1;whiteSpace=wrap;html=1;" parent="1" vertex="1">
          <mxGeometry x="362.19" y="6635" width="181.62" height="60" as="geometry" />
        </mxCell>
        <mxCell id="GXHC1qzvz30r8LCaRYrL-91" style="edgeStyle=orthogonalEdgeStyle;rounded=0;orthogonalLoop=1;jettySize=auto;html=1;exitX=1;exitY=0.75;exitDx=0;exitDy=0;entryX=0;entryY=0.5;entryDx=0;entryDy=0;" parent="1" source="GXHC1qzvz30r8LCaRYrL-87" target="GXHC1qzvz30r8LCaRYrL-86" edge="1">
          <mxGeometry relative="1" as="geometry">
            <Array as="points">
              <mxPoint x="116.81" y="6665" />
            </Array>
          </mxGeometry>
        </mxCell>
        <mxCell id="Opz0nOwXooW7iNa88jIe-17" style="edgeStyle=orthogonalEdgeStyle;rounded=0;orthogonalLoop=1;jettySize=auto;html=1;exitX=1;exitY=0.5;exitDx=0;exitDy=0;" parent="1" edge="1">
          <mxGeometry relative="1" as="geometry">
            <mxPoint x="116.81" y="6551.5" as="sourcePoint" />
            <mxPoint x="451" y="6490" as="targetPoint" />
            <Array as="points">
              <mxPoint x="117.31" y="6569" />
              <mxPoint x="450.31" y="6569" />
            </Array>
          </mxGeometry>
        </mxCell>
        <mxCell id="GXHC1qzvz30r8LCaRYrL-87" value="网站A" style="rounded=1;whiteSpace=wrap;html=1;fillColor=#f5f5f5;fontColor=#333333;strokeColor=#666666;" parent="1" vertex="1">
          <mxGeometry x="41.809999999999995" y="6390" width="75" height="325" as="geometry" />
        </mxCell>
        <mxCell id="GXHC1qzvz30r8LCaRYrL-98" value="RBAC、ABAC&lt;br&gt;权限分配可跳过角色" style="text;html=1;align=center;verticalAlign=middle;resizable=0;points=[];autosize=1;strokeColor=none;fillColor=none;" parent="1" vertex="1">
          <mxGeometry x="335" y="6155" width="130" height="40" as="geometry" />
        </mxCell>
        <mxCell id="GXHC1qzvz30r8LCaRYrL-101" value="账密" style="text;html=1;align=center;verticalAlign=middle;resizable=0;points=[];autosize=1;strokeColor=none;fillColor=none;" parent="1" vertex="1">
          <mxGeometry x="178.31" y="6160" width="50" height="30" as="geometry" />
        </mxCell>
        <mxCell id="GXHC1qzvz30r8LCaRYrL-102" value="confirm？" style="text;html=1;align=center;verticalAlign=middle;resizable=0;points=[];autosize=1;strokeColor=none;fillColor=none;" parent="1" vertex="1">
          <mxGeometry x="286.25" y="6405" width="70" height="30" as="geometry" />
        </mxCell>
        <mxCell id="Opz0nOwXooW7iNa88jIe-1" value="" style="rounded=0;whiteSpace=wrap;html=1;" parent="1" vertex="1">
          <mxGeometry x="827" y="5940" width="763" height="960" as="geometry" />
        </mxCell>
        <mxCell id="Opz0nOwXooW7iNa88jIe-2" value="SecurityFilterChain" style="text;html=1;align=center;verticalAlign=middle;resizable=0;points=[];autosize=1;strokeColor=none;fillColor=none;" parent="1" vertex="1">
          <mxGeometry x="827" y="5940" width="120" height="30" as="geometry" />
        </mxCell>
        <mxCell id="Opz0nOwXooW7iNa88jIe-16" style="edgeStyle=orthogonalEdgeStyle;rounded=0;orthogonalLoop=1;jettySize=auto;html=1;exitX=0.5;exitY=1;exitDx=0;exitDy=0;entryX=0.5;entryY=0;entryDx=0;entryDy=0;" parent="1" source="Opz0nOwXooW7iNa88jIe-3" target="Opz0nOwXooW7iNa88jIe-4" edge="1">
          <mxGeometry relative="1" as="geometry" />
        </mxCell>
        <mxCell id="Opz0nOwXooW7iNa88jIe-3" value="RequestMatcher" style="rounded=1;whiteSpace=wrap;html=1;" parent="1" vertex="1">
          <mxGeometry x="1128" y="5982.5" width="120" height="60" as="geometry" />
        </mxCell>
        <mxCell id="Opz0nOwXooW7iNa88jIe-4" value="SecurityContextHolderFilter" style="rounded=1;whiteSpace=wrap;html=1;" parent="1" vertex="1">
          <mxGeometry x="1035.5" y="6072.5" width="305" height="60" as="geometry" />
        </mxCell>
        <mxCell id="Opz0nOwXooW7iNa88jIe-5" value="CorsFilter&lt;br&gt;CsrfFilter" style="rounded=1;whiteSpace=wrap;html=1;" parent="1" vertex="1">
          <mxGeometry x="1035.5" y="6152.5" width="305" height="60" as="geometry" />
        </mxCell>
        <mxCell id="Opz0nOwXooW7iNa88jIe-7" value="RequestMatcher" style="rounded=1;whiteSpace=wrap;html=1;" parent="1" vertex="1">
          <mxGeometry x="870" y="6075" width="102.5" height="715" as="geometry" />
        </mxCell>
        <mxCell id="Opz0nOwXooW7iNa88jIe-8" value="UsernamePasswordAuthenticationFilter&lt;br&gt;AuthenticationManager，多session登录控制" style="rounded=1;whiteSpace=wrap;html=1;" parent="1" vertex="1">
          <mxGeometry x="1035.5" y="6325" width="305" height="60" as="geometry" />
        </mxCell>
        <mxCell id="Opz0nOwXooW7iNa88jIe-9" value="principal，credentials，authorities，details，token" style="rounded=1;whiteSpace=wrap;html=1;" parent="1" vertex="1">
          <mxGeometry x="1427.5" y="6072.5" width="97.5" height="697.5" as="geometry" />
        </mxCell>
        <mxCell id="Opz0nOwXooW7iNa88jIe-10" value="Authentication&lt;br&gt;身份认证信息" style="text;html=1;align=center;verticalAlign=middle;resizable=0;points=[];autosize=1;strokeColor=none;fillColor=none;" parent="1" vertex="1">
          <mxGeometry x="1427.5" y="6072.5" width="100" height="40" as="geometry" />
        </mxCell>
        <mxCell id="Opz0nOwXooW7iNa88jIe-12" value="RememberMeAuthenticationFilter&lt;br&gt;autoLoginByRembermeToken" style="rounded=1;whiteSpace=wrap;html=1;" parent="1" vertex="1">
          <mxGeometry x="1035.5" y="6510" width="305" height="60" as="geometry" />
        </mxCell>
        <mxCell id="Opz0nOwXooW7iNa88jIe-13" value="ExceptionTranslationFilter&lt;br&gt;AccessDeniedException、AuthenticationException" style="rounded=1;whiteSpace=wrap;html=1;" parent="1" vertex="1">
          <mxGeometry x="1035.5" y="6695" width="305" height="60" as="geometry" />
        </mxCell>
        <mxCell id="Opz0nOwXooW7iNa88jIe-14" value="FilterSecurityInterceptor&lt;br&gt;AuthorizationFilter" style="rounded=1;whiteSpace=wrap;html=1;" parent="1" vertex="1">
          <mxGeometry x="1035.5" y="6790" width="305" height="60" as="geometry" />
        </mxCell>
        <mxCell id="Opz0nOwXooW7iNa88jIe-15" value="SessionManagementFilter" style="rounded=1;whiteSpace=wrap;html=1;" parent="1" vertex="1">
          <mxGeometry x="1035.5" y="6600" width="305" height="60" as="geometry" />
        </mxCell>
        <mxCell id="Opz0nOwXooW7iNa88jIe-20" value="&lt;div&gt;OAuth2AuthorizationRequestRedirectFilter：&lt;br&gt;拦截登录请求并重定向到第三方网站&lt;/div&gt;&lt;div&gt;OAuth2LoginAuthenticationFilter：&lt;br&gt;拦截第三方网站重定向到本站的请求&lt;/div&gt;" style="rounded=1;whiteSpace=wrap;html=1;" parent="1" vertex="1">
          <mxGeometry x="1035.5" y="6226" width="305" height="87.5" as="geometry" />
        </mxCell>
        <mxCell id="SWVAi90Qxo_ujY7dEz8q-2" value="RateLimiter" style="text;html=1;align=center;verticalAlign=middle;resizable=0;points=[];autosize=1;strokeColor=none;fillColor=none;" parent="1" vertex="1">
          <mxGeometry x="336.75" y="3495" width="80" height="30" as="geometry" />
        </mxCell>
        <mxCell id="6IG09BnS-wHsHa9gtv4R-1" value="http/rpc" style="text;html=1;align=center;verticalAlign=middle;resizable=0;points=[];autosize=1;strokeColor=none;fillColor=none;" parent="1" vertex="1">
          <mxGeometry x="-39.75000000000001" y="3562.5" width="60" height="30" as="geometry" />
        </mxCell>
        <mxCell id="UJMKJTU-ZbX-Sr6Gy4jY-1" value="" style="endArrow=classic;html=1;rounded=0;entryX=0.25;entryY=0;entryDx=0;entryDy=0;" parent="1" edge="1">
          <mxGeometry width="50" height="50" relative="1" as="geometry">
            <mxPoint x="1686.88" y="2902.87" as="sourcePoint" />
            <mxPoint x="1687.38" y="3054.0899999999997" as="targetPoint" />
          </mxGeometry>
        </mxCell>
        <mxCell id="UJMKJTU-ZbX-Sr6Gy4jY-2" value="" style="endArrow=classic;html=1;rounded=0;entryX=0.25;entryY=0;entryDx=0;entryDy=0;" parent="1" edge="1">
          <mxGeometry width="50" height="50" relative="1" as="geometry">
            <mxPoint x="1651.5" y="2901.98" as="sourcePoint" />
            <mxPoint x="1652" y="3053.2" as="targetPoint" />
          </mxGeometry>
        </mxCell>
        <mxCell id="UJMKJTU-ZbX-Sr6Gy4jY-3" value="LoadBalancerClient&amp;nbsp;extends ServiceInstanceChooser" style="rounded=1;whiteSpace=wrap;html=1;dashed=1" parent="1" vertex="1">
          <mxGeometry x="173.44" y="5030" width="442.5" height="40" as="geometry" />
        </mxCell>
        <mxCell id="MDqrIKJcOheHlpsh-lTb-2" value="invoke()" style="text;html=1;align=center;verticalAlign=middle;resizable=0;points=[];autosize=1;strokeColor=none;fillColor=none;" parent="1" vertex="1">
          <mxGeometry x="805.13" y="569" width="70" height="30" as="geometry" />
        </mxCell>
        <mxCell id="cVtg3vIW6vbgqcSQIO5m-3" style="edgeStyle=orthogonalEdgeStyle;rounded=0;orthogonalLoop=1;jettySize=auto;html=1;exitX=0.5;exitY=1;exitDx=0;exitDy=0;entryX=0.5;entryY=0;entryDx=0;entryDy=0;" parent="1" source="cVtg3vIW6vbgqcSQIO5m-2" target="T5hCsq0dW14gql95HTT5-7" edge="1">
          <mxGeometry relative="1" as="geometry" />
        </mxCell>
        <mxCell id="cVtg3vIW6vbgqcSQIO5m-2" value="PropertySourceLoader" style="rounded=1;whiteSpace=wrap;html=1;" parent="1" vertex="1">
          <mxGeometry x="483.32" y="-690" width="140" height="60" as="geometry" />
        </mxCell>
        <mxCell id="cVtg3vIW6vbgqcSQIO5m-4" value="还有一层：支持scopes&lt;br&gt;还有一层：支持FactoryBean" style="text;html=1;align=center;verticalAlign=middle;resizable=0;points=[];autosize=1;strokeColor=none;fillColor=none;" parent="1" vertex="1">
          <mxGeometry x="179.75" y="190" width="180" height="40" as="geometry" />
        </mxCell>
        <mxCell id="V2kQxAzgLIzO_4P0HWAn-6" value="" style="shape=flexArrow;endArrow=classic;html=1;rounded=0;" parent="1" edge="1">
          <mxGeometry width="50" height="50" relative="1" as="geometry">
            <mxPoint x="839.88" y="516" as="sourcePoint" />
            <mxPoint x="839.63" y="576" as="targetPoint" />
          </mxGeometry>
        </mxCell>
        <mxCell id="V2kQxAzgLIzO_4P0HWAn-7" value="........................................." style="rounded=0;whiteSpace=wrap;html=1;fillColor=#f5f5f5;fontColor=#333333;strokeColor=#666666;" parent="1" vertex="1">
          <mxGeometry x="597" y="860" width="500" height="110" as="geometry" />
        </mxCell>
        <mxCell id="V2kQxAzgLIzO_4P0HWAn-8" value="......................" style="rounded=1;whiteSpace=wrap;html=1;" parent="1" vertex="1">
          <mxGeometry x="201.5" y="1604" width="158.5" height="40" as="geometry" />
        </mxCell>
        <mxCell id="V2kQxAzgLIzO_4P0HWAn-10" value="ExceptionTranslator&lt;br&gt;TransactionalEventListener" style="rounded=1;whiteSpace=wrap;html=1;" parent="1" vertex="1">
          <mxGeometry x="959.5" y="1230" width="180" height="570" as="geometry" />
        </mxCell>
        <mxCell id="V2kQxAzgLIzO_4P0HWAn-12" value="invoke()：xml + SqlSession" style="text;html=1;align=center;verticalAlign=middle;resizable=0;points=[];autosize=1;strokeColor=none;fillColor=none;" parent="1" vertex="1">
          <mxGeometry x="595" y="2824" width="170" height="30" as="geometry" />
        </mxCell>
        <mxCell id="Sex7zkPJsZLkAJCv9PTU-1" value="CAS" style="text;html=1;align=center;verticalAlign=middle;resizable=0;points=[];autosize=1;strokeColor=none;fillColor=none;" parent="1" vertex="1">
          <mxGeometry x="1662.5" y="2863.48" width="50" height="30" as="geometry" />
        </mxCell>
        <mxCell id="Sex7zkPJsZLkAJCv9PTU-2" value="................" style="rounded=1;whiteSpace=wrap;html=1;" parent="1" vertex="1">
          <mxGeometry x="1574.75" y="4510" width="183" height="40" as="geometry" />
        </mxCell>
        <mxCell id="spOn6Aq3vOKYvPvDtnqc-1" value="Transaction2Attribute" style="rounded=1;whiteSpace=wrap;html=1;" parent="1" vertex="1">
          <mxGeometry x="201" y="1552" width="158.5" height="40" as="geometry" />
        </mxCell>
        <mxCell id="tzKpdzGzU6ckgr4uCCz3-1" value="没有空闲连接时" style="text;html=1;align=center;verticalAlign=middle;resizable=0;points=[];autosize=1;strokeColor=none;fillColor=none;" parent="1" vertex="1">
          <mxGeometry x="1787.5" y="2800" width="110" height="30" as="geometry" />
        </mxCell>
        <mxCell id="tzKpdzGzU6ckgr4uCCz3-3" value="FeignClient：FeignClientFactory" style="text;html=1;align=left;verticalAlign=middle;resizable=0;points=[];autosize=1;strokeColor=none;fillColor=none;" parent="1" vertex="1">
          <mxGeometry x="465" y="3625" width="200" height="30" as="geometry" />
        </mxCell>
        <mxCell id="tzKpdzGzU6ckgr4uCCz3-5" value="access_token/jwt &amp;amp; refresh_token" style="text;html=1;align=center;verticalAlign=middle;resizable=0;points=[];autosize=1;strokeColor=none;fillColor=none;" parent="1" vertex="1">
          <mxGeometry x="134.56000000000003" y="6540" width="200" height="30" as="geometry" />
        </mxCell>
        <mxCell id="tzKpdzGzU6ckgr4uCCz3-10" value="access_token" style="text;html=1;align=center;verticalAlign=middle;resizable=0;points=[];autosize=1;strokeColor=none;fillColor=none;" parent="1" vertex="1">
          <mxGeometry x="169.69000000000005" y="6635" width="100" height="30" as="geometry" />
        </mxCell>
        <mxCell id="tzKpdzGzU6ckgr4uCCz3-11" value="ConcurrentSessionFilter&lt;br&gt;refreshLastRequest" style="rounded=1;whiteSpace=wrap;html=1;" parent="1" vertex="1">
          <mxGeometry x="1035.5" y="6415" width="305" height="60" as="geometry" />
        </mxCell>
        <mxCell id="kX9l6juWGzgDCXuLw0vY-1" style="edgeStyle=orthogonalEdgeStyle;rounded=0;orthogonalLoop=1;jettySize=auto;html=1;exitX=1;exitY=0.5;exitDx=0;exitDy=0;entryX=0;entryY=0.5;entryDx=0;entryDy=0;" parent="1" source="ZH5KCao1-Y4s3EDStAIh-1" edge="1">
          <mxGeometry relative="1" as="geometry">
            <mxPoint x="-1450" y="2989.46" as="targetPoint" />
          </mxGeometry>
        </mxCell>
        <mxCell id="tDjaXYeDqaXgSuhyQDGL-12" style="edgeStyle=orthogonalEdgeStyle;rounded=0;orthogonalLoop=1;jettySize=auto;html=1;exitX=1;exitY=0.5;exitDx=0;exitDy=0;entryX=0;entryY=0.5;entryDx=0;entryDy=0;" parent="1" source="ZH5KCao1-Y4s3EDStAIh-1" target="ZH5KCao1-Y4s3EDStAIh-4" edge="1">
          <mxGeometry relative="1" as="geometry" />
        </mxCell>
        <mxCell id="ZH5KCao1-Y4s3EDStAIh-1" value="" style="rounded=0;whiteSpace=wrap;html=1;" parent="1" vertex="1">
          <mxGeometry x="-1800" y="2942.0000000000005" width="360" height="160" as="geometry" />
        </mxCell>
        <mxCell id="ZH5KCao1-Y4s3EDStAIh-2" value="Metamodel" style="rounded=1;whiteSpace=wrap;html=1;" parent="1" vertex="1">
          <mxGeometry x="-1760" y="2992" width="120" height="60" as="geometry" />
        </mxCell>
        <mxCell id="ZH5KCao1-Y4s3EDStAIh-3" value="EntityManagerFactory&lt;br&gt;SharedEntityManager" style="text;html=1;align=center;verticalAlign=middle;resizable=0;points=[];autosize=1;strokeColor=none;fillColor=none;" parent="1" vertex="1">
          <mxGeometry x="-1800" y="2942.0000000000005" width="140" height="40" as="geometry" />
        </mxCell>
        <mxCell id="ZH5KCao1-Y4s3EDStAIh-4" value="" style="rounded=0;whiteSpace=wrap;html=1;" parent="1" vertex="1">
          <mxGeometry x="-1380" y="2794" width="840" height="456" as="geometry" />
        </mxCell>
        <mxCell id="ZH5KCao1-Y4s3EDStAIh-5" value="EntityManager" style="text;html=1;align=center;verticalAlign=middle;resizable=0;points=[];autosize=1;strokeColor=none;fillColor=none;" parent="1" vertex="1">
          <mxGeometry x="-1380" y="2794" width="100" height="30" as="geometry" />
        </mxCell>
        <mxCell id="ZH5KCao1-Y4s3EDStAIh-6" value="ActionQueue&lt;br&gt;EntityAction.EntityPersister&amp;nbsp;" style="rounded=1;whiteSpace=wrap;html=1;fillColor=#f5f5f5;fontColor=#333333;strokeColor=#666666;" parent="1" vertex="1">
          <mxGeometry x="-1025" y="3089.33" width="210" height="79.3" as="geometry" />
        </mxCell>
        <mxCell id="ZH5KCao1-Y4s3EDStAIh-10" style="edgeStyle=orthogonalEdgeStyle;rounded=0;orthogonalLoop=1;jettySize=auto;html=1;exitX=0.5;exitY=1;exitDx=0;exitDy=0;entryX=0.5;entryY=0;entryDx=0;entryDy=0;" parent="1" source="ZH5KCao1-Y4s3EDStAIh-8" target="ZH5KCao1-Y4s3EDStAIh-9" edge="1">
          <mxGeometry relative="1" as="geometry" />
        </mxCell>
        <mxCell id="tDjaXYeDqaXgSuhyQDGL-8" style="edgeStyle=orthogonalEdgeStyle;rounded=0;orthogonalLoop=1;jettySize=auto;html=1;exitX=0.5;exitY=1;exitDx=0;exitDy=0;entryX=0.5;entryY=0;entryDx=0;entryDy=0;" parent="1" source="ZH5KCao1-Y4s3EDStAIh-8" target="tDjaXYeDqaXgSuhyQDGL-7" edge="1">
          <mxGeometry relative="1" as="geometry" />
        </mxCell>
        <mxCell id="tDjaXYeDqaXgSuhyQDGL-10" style="edgeStyle=orthogonalEdgeStyle;rounded=0;orthogonalLoop=1;jettySize=auto;html=1;exitX=0.5;exitY=1;exitDx=0;exitDy=0;entryX=0.5;entryY=0;entryDx=0;entryDy=0;" parent="1" edge="1">
          <mxGeometry relative="1" as="geometry">
            <mxPoint x="-920" y="2933.3100000000004" as="sourcePoint" />
            <mxPoint x="-670" y="2991.4799999999996" as="targetPoint" />
          </mxGeometry>
        </mxCell>
        <mxCell id="ZH5KCao1-Y4s3EDStAIh-8" value="FastSessionServices.&lt;br&gt;fireEventOnEachListener()" style="rounded=1;whiteSpace=wrap;html=1;" parent="1" vertex="1">
          <mxGeometry x="-1020" y="2834.3100000000004" width="200" height="70" as="geometry" />
        </mxCell>
        <mxCell id="ZH5KCao1-Y4s3EDStAIh-11" style="edgeStyle=orthogonalEdgeStyle;rounded=0;orthogonalLoop=1;jettySize=auto;html=1;exitX=0.5;exitY=1;exitDx=0;exitDy=0;entryX=0.5;entryY=0;entryDx=0;entryDy=0;" parent="1" source="ZH5KCao1-Y4s3EDStAIh-9" target="ZH5KCao1-Y4s3EDStAIh-6" edge="1">
          <mxGeometry relative="1" as="geometry" />
        </mxCell>
        <mxCell id="ZH5KCao1-Y4s3EDStAIh-9" value="Insert/Delete/UpdateListener.&lt;br&gt;getActionQueue().addInsertAction()" style="rounded=1;whiteSpace=wrap;html=1;" parent="1" vertex="1">
          <mxGeometry x="-1040" y="2962.4800000000005" width="240" height="73.28" as="geometry" />
        </mxCell>
        <mxCell id="tDjaXYeDqaXgSuhyQDGL-1" value="EventEngine" style="rounded=1;whiteSpace=wrap;html=1;" parent="1" vertex="1">
          <mxGeometry x="-1600" y="2992" width="120" height="60" as="geometry" />
        </mxCell>
        <mxCell id="tDjaXYeDqaXgSuhyQDGL-2" value="提交事务/flush" style="text;html=1;align=center;verticalAlign=middle;resizable=0;points=[];autosize=1;strokeColor=none;fillColor=none;" parent="1" vertex="1">
          <mxGeometry x="-770" y="2901.7799999999997" width="100" height="30" as="geometry" />
        </mxCell>
        <mxCell id="tDjaXYeDqaXgSuhyQDGL-3" value="Query&lt;br&gt;TypedQuery&lt;br&gt;&lt;br&gt;CriteriaBuilder: CriteriaQuery/CriteriaUpdate/CriteriaDelete&lt;br&gt;CriteriaQueryTypeQueryAdapter&lt;br&gt;&lt;br&gt;NativeQuery" style="rounded=1;whiteSpace=wrap;html=1;" parent="1" vertex="1">
          <mxGeometry x="-1350" y="3063.98" width="290" height="130" as="geometry" />
        </mxCell>
        <mxCell id="tDjaXYeDqaXgSuhyQDGL-5" value="" style="shape=flexArrow;endArrow=classic;html=1;rounded=0;entryX=0.7;entryY=-0.088;entryDx=0;entryDy=0;entryPerimeter=0;" parent="1" edge="1">
          <mxGeometry width="50" height="50" relative="1" as="geometry">
            <mxPoint x="-920.5" y="2764.13" as="sourcePoint" />
            <mxPoint x="-920.5" y="2835.49" as="targetPoint" />
          </mxGeometry>
        </mxCell>
        <mxCell id="tDjaXYeDqaXgSuhyQDGL-6" value="crud" style="text;html=1;align=center;verticalAlign=middle;resizable=0;points=[];autosize=1;strokeColor=none;fillColor=none;" parent="1" vertex="1">
          <mxGeometry x="-945" y="2730.81" width="50" height="30" as="geometry" />
        </mxCell>
        <mxCell id="tDjaXYeDqaXgSuhyQDGL-13" style="edgeStyle=orthogonalEdgeStyle;rounded=0;orthogonalLoop=1;jettySize=auto;html=1;exitX=0.5;exitY=1;exitDx=0;exitDy=0;entryX=0.5;entryY=0;entryDx=0;entryDy=0;" parent="1" source="tDjaXYeDqaXgSuhyQDGL-7" target="tDjaXYeDqaXgSuhyQDGL-3" edge="1">
          <mxGeometry relative="1" as="geometry" />
        </mxCell>
        <mxCell id="tDjaXYeDqaXgSuhyQDGL-7" value="LoadEventListener" style="rounded=1;whiteSpace=wrap;html=1;" parent="1" vertex="1">
          <mxGeometry x="-1325" y="2961.7800000000007" width="240" height="73.28" as="geometry" />
        </mxCell>
        <mxCell id="tDjaXYeDqaXgSuhyQDGL-11" style="edgeStyle=orthogonalEdgeStyle;rounded=0;orthogonalLoop=1;jettySize=auto;html=1;exitX=0.5;exitY=1;exitDx=0;exitDy=0;entryX=1;entryY=0.5;entryDx=0;entryDy=0;" parent="1" source="tDjaXYeDqaXgSuhyQDGL-9" target="ZH5KCao1-Y4s3EDStAIh-6" edge="1">
          <mxGeometry relative="1" as="geometry" />
        </mxCell>
        <mxCell id="tDjaXYeDqaXgSuhyQDGL-9" value="&lt;div&gt;FlushEventListener.&lt;/div&gt;&lt;div&gt;executeActions()&lt;/div&gt;" style="rounded=1;whiteSpace=wrap;html=1;" parent="1" vertex="1">
          <mxGeometry x="-760" y="2962.48" width="180" height="73.28" as="geometry" />
        </mxCell>
        <mxCell id="21ADhYOM5bDmx4pO5tFE-4" value="RoutePredicateFactory" style="rounded=1;whiteSpace=wrap;html=1;" parent="1" vertex="1">
          <mxGeometry x="554.6899999999999" y="4224" width="363" height="50" as="geometry" />
        </mxCell>
        <mxCell id="21ADhYOM5bDmx4pO5tFE-6" value="微信" style="text;html=1;align=center;verticalAlign=middle;resizable=0;points=[];autosize=1;strokeColor=none;fillColor=none;" parent="1" vertex="1">
          <mxGeometry x="319" y="6383" width="50" height="30" as="geometry" />
        </mxCell>
        <mxCell id="21ADhYOM5bDmx4pO5tFE-7" value="用户" style="text;html=1;align=center;verticalAlign=middle;resizable=0;points=[];autosize=1;strokeColor=none;fillColor=none;" parent="1" vertex="1">
          <mxGeometry x="161.75" y="6390" width="50" height="30" as="geometry" />
        </mxCell>
        <mxCell id="21ADhYOM5bDmx4pO5tFE-8" value="成品bean" style="whiteSpace=wrap;html=1;" parent="1" vertex="1">
          <mxGeometry x="-219.75" y="207.5" width="180" height="60" as="geometry" />
        </mxCell>
        <mxCell id="21ADhYOM5bDmx4pO5tFE-9" value="半成品bean" style="whiteSpace=wrap;html=1;" parent="1" vertex="1">
          <mxGeometry x="-219.75" y="267.5" width="180" height="60" as="geometry" />
        </mxCell>
        <mxCell id="21ADhYOM5bDmx4pO5tFE-10" value="lambda &lt;br&gt;aop &amp;amp; 循环依赖" style="whiteSpace=wrap;html=1;" parent="1" vertex="1">
          <mxGeometry x="-219.75" y="327.5" width="180" height="60" as="geometry" />
        </mxCell>
        <mxCell id="25mVGsVp8zkUCLygjBpY-1" value="AnnotationTransactionAttributeSource&lt;br&gt;NameMatchTransactionAttributeSource" style="text;html=1;align=center;verticalAlign=middle;resizable=0;points=[];autosize=1;strokeColor=none;fillColor=none;" parent="1" vertex="1">
          <mxGeometry x="-183.75" y="1438" width="230" height="40" as="geometry" />
        </mxCell>
        <mxCell id="25mVGsVp8zkUCLygjBpY-2" value="" style="endArrow=classic;html=1;rounded=0;exitX=-0.033;exitY=0.524;exitDx=0;exitDy=0;exitPerimeter=0;entryX=1.019;entryY=0.524;entryDx=0;entryDy=0;entryPerimeter=0;" parent="1" source="HCkOC1CJI_hwc8_c8_Th-5" target="25mVGsVp8zkUCLygjBpY-1" edge="1">
          <mxGeometry width="50" height="50" relative="1" as="geometry">
            <mxPoint x="30" y="1690" as="sourcePoint" />
            <mxPoint x="80" y="1640" as="targetPoint" />
          </mxGeometry>
        </mxCell>
        <mxCell id="5GvychwW1Yd68G3pm8Jn-2" style="edgeStyle=orthogonalEdgeStyle;rounded=0;orthogonalLoop=1;jettySize=auto;html=1;exitX=0;exitY=0.25;exitDx=0;exitDy=0;entryX=0.992;entryY=0.134;entryDx=0;entryDy=0;entryPerimeter=0;" edge="1" parent="1" source="GXHC1qzvz30r8LCaRYrL-75" target="GXHC1qzvz30r8LCaRYrL-87">
          <mxGeometry relative="1" as="geometry" />
        </mxCell>
        <mxCell id="5GvychwW1Yd68G3pm8Jn-6" value="code" style="text;html=1;align=center;verticalAlign=middle;resizable=0;points=[];autosize=1;strokeColor=none;fillColor=none;" vertex="1" parent="1">
          <mxGeometry x="114.06" y="6445" width="50" height="30" as="geometry" />
        </mxCell>
        <mxCell id="5GvychwW1Yd68G3pm8Jn-9" value="code" style="text;html=1;align=center;verticalAlign=middle;resizable=0;points=[];autosize=1;strokeColor=none;fillColor=none;" vertex="1" parent="1">
          <mxGeometry x="285" y="6444.5" width="50" height="30" as="geometry" />
        </mxCell>
      </root>
    </mxGraphModel>
  </diagram>
</mxfile>
